<svg width="318" height="169" viewBox="0 0 318 169" fill="none" xmlns="http://www.w3.org/2000/svg">
<path fill-rule="evenodd" clip-rule="evenodd" d="M282.775 116.437C282.775 52.1306 230.645 0 166.339 0C102.032 0 44.976 52.2403 49.9016 116.437C55.7724 192.952 282.775 178.378 282.775 116.437Z" fill="#127369" fill-opacity="0.7"/>
<path d="M74.4208 114.963C74.8016 114.929 75.2987 114.969 75.4067 115.335C75.41 115.778 74.8495 115.962 74.4104 116.016C72.0438 116.311 69.6771 116.605 67.3105 116.899C68.4106 117.833 68.5198 119.685 67.5891 120.788C66.6584 121.891 64.8796 122.117 63.6617 121.343C63.2555 121.085 62.9094 120.735 62.4824 120.513C62.0554 120.291 61.4912 120.225 61.1213 120.533C60.2854 121.229 59.0248 121.041 58.0245 120.614C57.033 120.19 56.0546 119.467 55.8238 118.414C55.5951 117.37 56.1652 116.318 56.8393 115.489C57.5133 114.66 58.3275 113.91 58.7325 112.921C59.3265 111.47 61.0807 110.748 62.6346 110.953C64.1884 111.159 65.5489 112.104 66.6806 113.189C67.4094 113.887 68.5914 113.613 69.5547 113.312C70.518 113.011 71.7276 112.788 72.4024 113.539" fill="white"/>
<path fill-rule="evenodd" clip-rule="evenodd" d="M211.057 110.891C211.057 100.031 219.083 97.5291 224.176 97.6569C229.27 97.7848 234.127 101.064 236.018 105.637C237.908 110.211 236.73 115.816 233.153 119.322C229.575 122.829 222.022 122.871 219.845 122.21C217.667 121.549 211.057 116.952 211.057 110.891Z" fill="white"/>
<path fill-rule="evenodd" clip-rule="evenodd" d="M223.544 103.384C225.371 103.238 227.249 103.905 228.575 105.171C230.63 107.133 231.161 110.508 229.807 113.006C228.454 115.504 225.336 116.902 222.571 116.252C219.937 115.633 217.827 113.22 217.565 110.527C217.302 107.834 218.907 105.06 221.373 103.944C222.057 103.634 222.795 103.444 223.544 103.384M226.715 104.647C226.068 104.171 225.357 103.774 224.588 103.62C223.713 103.445 222.797 103.599 221.976 103.97C219.891 104.914 218.469 107.361 218.605 109.8C218.74 112.24 220.435 114.491 222.622 115.113C224.809 115.735 227.319 114.668 228.513 112.592C229.706 110.516 229.474 107.598 227.957 105.786C227.592 105.35 227.165 104.978 226.715 104.647V104.647Z" fill="#00160A"/>
<path fill-rule="evenodd" clip-rule="evenodd" d="M101.238 111.668C101.193 110.96 101.198 110.246 101.323 109.548C101.418 109.018 101.58 108.504 101.743 107.991C102.092 106.886 102.443 105.778 102.922 104.722C105.27 99.5472 110.884 96.0423 116.564 96.1898C122.245 96.3373 127.663 100.121 129.772 105.398C131.881 110.675 130.567 117.142 126.576 121.188C122.586 125.234 116.147 126.639 110.829 124.636C105.511 122.633 101.602 117.339 101.238 111.668" fill="white"/>
<path fill-rule="evenodd" clip-rule="evenodd" d="M116.477 47.7336C116.506 49.98 115.932 52.3823 116.971 54.374C118.896 58.0637 124.302 57.378 128.279 56.1512C125.011 52.4313 121.742 48.7114 118.474 44.9915C125.245 38.0782 132.016 31.1649 138.786 24.2516C139.351 23.6751 140.003 23.0591 140.809 23.0434C141.74 23.0253 142.467 23.8035 143.063 24.5182C145.281 27.1784 147.499 29.8387 149.716 32.4989C151.544 34.6907 153.284 38.2407 151.047 40.0128C159.438 39.4434 167.829 38.874 176.22 38.3046C174.649 29.3301 177.536 18.2835 180.386 9.62987C180.67 8.76733 181.014 7.82925 181.802 7.37799C182.354 7.06189 183.022 7.04923 183.658 7.04484C198.978 6.9392 214.298 6.83355 229.618 6.7279C230.546 6.7215 231.525 6.72799 232.326 7.1951C233.014 7.59592 233.478 8.28327 233.912 8.95075C246.873 28.8758 254.965 53.9003 257.291 77.5555C257.583 80.5227 261.386 101.771 257.291 102.402C237.793 105.403 241.614 87.7315 221.021 90.3167C204.102 92.4407 207.298 102.402 197.519 104.343C188.734 106.086 158.771 106.519 149.058 107.006C135.733 107.673 134.792 87.5299 114.5 88.3483C94.2087 89.1668 94.6732 112.207 83.7417 109.569C83.2858 109.459 78.3366 106.581 78.225 106.236C76.6141 101.257 75.4063 83.0354 75.4063 83.0354L71.5904 82.1879C71.5904 82.1879 71.31 72.7811 71.5904 72.4807C72.0843 71.9513 80.7344 72.901 84.478 72.4807C83.372 64.8005 82.266 57.1203 81.16 49.4401C81.0645 48.7769 80.982 48.0481 81.3425 47.4833C81.7432 46.8554 82.548 46.6475 83.2772 46.4951C93.0327 44.4569 102.96 43.2409 112.919 42.8642C115.164 42.7793 116.448 45.4872 116.477 47.7336Z" fill="white"/>
<path fill-rule="evenodd" clip-rule="evenodd" d="M96.7907 68.687L92.3991 68.9997L89.9307 45.2419L93.7761 44.6096L96.7907 68.687Z" fill="#10403B"/>
<path fill-rule="evenodd" clip-rule="evenodd" d="M200.503 23.4368C201.692 23.208 224.507 39.0408 224.27 39.2977C224.034 39.5545 200.032 23.5273 200.503 23.4368Z" fill="#E7EAEE"/>
<path fill-rule="evenodd" clip-rule="evenodd" d="M210.288 23.4369C211.21 23.2725 222.903 31.1783 222.578 31.6389C222.253 32.0994 209.698 23.5418 210.288 23.4369Z" fill="#E7EAEE"/>
<path fill-rule="evenodd" clip-rule="evenodd" d="M198.057 28.3291C197.613 27.5455 210.7 36.5999 210.348 36.5311C206.976 35.872 198.187 28.5591 198.057 28.3291Z" fill="#E7EAEE"/>
<path fill-rule="evenodd" clip-rule="evenodd" d="M196.51 53.873C196.798 54.0998 196.68 54.615 196.356 54.7848C196.032 54.9545 195.619 54.8412 195.333 54.6139C194.47 53.9295 194.649 52.4789 195.404 51.6775C196.16 50.8761 197.282 50.5569 198.345 50.2711C198.787 50.1525 199.228 50.034 199.669 49.9154C200.57 49.6735 201.527 49.4316 202.42 49.6992C203.314 49.9669 204.058 50.9571 203.711 51.8227C203.493 52.3673 202.916 52.6969 202.339 52.8012C201.762 52.9055 201.169 52.8263 200.584 52.7864C199.434 52.708 198.274 52.7833 197.144 53.0097C196.923 53.0541 196.689 53.1113 196.53 53.2724C196.372 53.4335 196.333 53.7329 196.51 53.873Z" fill="#00160A"/>
<path fill-rule="evenodd" clip-rule="evenodd" d="M202.299 103.22C202.001 104.456 201.702 105.692 201.403 106.928C201.312 107.305 201.211 107.701 200.946 107.985C200.552 108.408 199.914 108.469 199.337 108.502C181.175 109.542 162.999 110.338 144.816 110.889C143.586 110.926 142.428 110.225 141.621 109.297C140.814 108.369 140.301 107.228 139.799 106.105C140.594 105.913 141.347 106.545 141.831 107.204C142.315 107.863 142.741 108.641 143.494 108.962C143.988 109.173 144.548 109.148 145.085 109.119C162.743 108.171 180.401 107.223 198.059 106.275C198.695 106.24 199.386 106.185 199.859 105.758C200.345 105.318 200.462 104.613 200.747 104.023C201.031 103.432 201.731 102.893 202.299 103.22L202.299 103.22Z" fill="#00160A"/>
<path fill-rule="evenodd" clip-rule="evenodd" d="M66.4368 113.778C65.5783 112.861 64.4929 112.157 63.3049 111.749C62.4983 111.471 61.5742 111.338 60.8169 111.731C60.0597 112.123 59.6372 113.206 60.1699 113.872C60.4502 114.223 59.8175 114.555 59.379 114.651C58.0688 114.939 57.0802 116.391 57.4515 117.68C57.8228 118.969 59.6256 119.641 60.6655 118.794C61.0421 118.487 61.2944 118.039 61.7024 117.776C62.1104 117.512 62.798 117.568 62.9235 118.037C63.1879 119.026 64.0899 119.812 65.1059 119.939C65.7694 120.022 66.5545 119.751 66.7601 119.115C67.1244 117.988 65.4619 116.82 66.028 115.779C66.3134 115.254 67.004 115.141 67.599 115.088C69.873 114.883 72.1469 114.679 74.4208 114.474C74.8016 114.44 75.2987 114.479 75.4065 114.846C75.41 115.289 74.8495 115.472 74.4104 115.527C72.0438 115.821 69.6771 116.116 67.3105 116.41C68.4106 117.344 68.5198 119.196 67.5891 120.299C66.6584 121.401 64.8796 121.628 63.6617 120.854C63.2555 120.596 62.9094 120.246 62.4824 120.024C62.0554 119.802 61.4912 119.736 61.1213 120.044C60.2854 120.74 59.0248 120.552 58.0245 120.125C57.033 119.701 56.0546 118.978 55.8238 117.925C55.5951 116.881 56.1652 115.829 56.8393 115C57.5133 114.171 58.3275 113.42 58.7325 112.432C59.3265 110.981 61.0807 110.259 62.6346 110.464C64.1884 110.669 65.5489 111.615 66.6806 112.7C67.4094 113.398 68.5914 113.124 69.5547 112.823C70.518 112.522 71.7276 112.299 72.4024 113.05C71.0133 113.365 69.6243 113.681 68.2353 113.996C67.6171 114.136 66.8701 114.241 66.4368 113.778Z" fill="#E7EAEE"/>
<path fill-rule="evenodd" clip-rule="evenodd" d="M94.2469 112.433C94.18 111.39 94.188 110.337 94.3723 109.308C94.5121 108.528 94.7517 107.77 94.9906 107.014C95.5057 105.385 96.0226 103.752 96.7287 102.196C100.19 94.5688 108.463 89.4029 116.836 89.6204C125.209 89.8378 133.195 95.4142 136.302 103.192C139.41 110.969 137.474 120.501 131.592 126.465C125.711 132.428 116.221 134.498 108.383 131.546C100.545 128.594 94.7835 120.791 94.2469 112.433M98.6395 104.631C98.2674 105.62 97.9771 106.658 97.9783 107.715C97.9818 110.956 98.2372 114.245 99.3375 117.294C101.65 123.703 107.884 128.501 114.669 129.12C121.454 129.74 128.443 126.164 131.931 120.311C135.419 114.459 135.246 106.626 131.524 100.92C127.802 95.213 120.72 91.8987 113.951 92.671C107.182 93.4434 101.038 98.2539 98.6395 104.631H98.6395Z" fill="#00160A"/>
<path fill-rule="evenodd" clip-rule="evenodd" d="M231.134 92.6527C238.231 95.6361 243.172 103.147 243.101 110.846C243.03 118.545 237.951 125.963 230.8 128.815C223.649 131.667 214.859 129.779 209.51 124.242C204.16 118.704 202.576 109.855 205.673 102.806C206.405 101.139 207.396 99.5476 208.804 98.3934C211.995 95.7771 215.299 93.1043 219.246 91.9015C223.122 90.7205 227.399 91.0828 231.134 92.6527M214.624 96.3789C213.692 96.9746 212.811 97.6703 212.122 98.5357C211.393 99.4509 210.9 100.527 210.414 101.592C209.686 103.187 208.955 104.792 208.5 106.485C206.939 112.306 209.051 118.939 213.668 122.811C218.286 126.683 225.163 127.612 230.656 125.133C236.149 122.653 239.997 116.903 240.227 110.881C240.457 104.859 237.075 98.8456 231.826 95.885C226.577 92.9245 219.701 93.1335 214.624 96.3789Z" fill="#00160A"/>
<path fill-rule="evenodd" clip-rule="evenodd" d="M224.859 13.6338C212.549 13.8959 200.239 14.158 187.929 14.4201C187.621 14.4266 187.281 14.4469 187.066 14.666C186.927 14.8076 186.867 15.0072 186.815 15.1987C184.085 25.1545 186.297 35.7025 188.151 45.8579C189.307 52.1892 190.321 58.5465 191.191 64.9234C191.818 69.5155 192.371 74.1335 192.332 78.768C192.32 80.2417 193.355 81.5737 194.646 82.2855C195.936 82.9974 197.446 83.1896 198.918 83.261C202.019 83.4115 205.142 83.0818 208.143 82.2871C208.702 82.1391 209.282 81.9737 209.85 82.08C210.418 82.1863 210.965 82.664 210.93 83.241C210.89 83.9084 210.168 84.2919 209.538 84.5159C205.576 85.9255 201.227 86.2284 197.107 85.3817C195.131 84.9754 193.07 84.2087 191.937 82.5389C191.292 81.589 191.017 80.4433 190.766 79.3232C188.243 68.053 186.983 56.5436 185.753 45.06C184.635 34.6241 183.536 24.1065 184.474 13.6528C184.503 13.3297 184.538 12.9936 184.709 12.7182C185.077 12.1277 185.889 12.0475 186.584 12.0304C199.606 11.7107 212.627 11.3909 225.649 11.0711C226.387 11.053 227.18 11.0503 227.79 11.468C228.239 11.7761 228.52 12.2694 228.785 12.7455C233.506 21.2202 238.226 29.6948 242.947 38.1695C243.891 39.865 244.866 41.8127 244.279 43.6625C243.843 45.0343 242.601 46.0294 241.251 46.5308C239.902 47.0322 238.439 47.1141 237.002 47.1908C234.422 47.3285 231.842 47.4662 229.262 47.6039C222.888 47.944 216.514 48.2842 210.141 48.6244C209.775 48.6439 209.366 48.6489 209.096 48.4019C208.701 48.0414 208.872 47.3369 209.293 47.0078C209.714 46.6787 210.28 46.6212 210.812 46.5763C220.431 45.7652 230.049 44.954 239.668 44.1429C240.421 44.0793 240.944 43.2878 240.978 42.5321C241.012 41.7763 240.685 41.0566 240.363 40.3721C236.196 31.5168 231.684 22.8239 226.84 14.3195C226.476 13.6801 225.595 13.6182 224.859 13.6338V13.6338Z" fill="#00160A"/>
<path fill-rule="evenodd" clip-rule="evenodd" d="M108.768 98.6688C113.069 96.2878 118.666 96.5663 122.808 99.216C126.95 101.866 129.53 106.727 129.585 111.643C129.64 116.651 126.925 121.781 122.39 123.906C120.809 124.647 119.066 125.015 117.322 125.083C110.964 125.332 104.603 121.151 102.566 115.123C100.529 109.096 103.201 101.75 108.768 98.6688M118.587 122.929C120.258 122.651 121.882 122.054 123.304 121.132C124.761 120.187 125.996 118.903 126.883 117.41C129.193 113.525 128.898 108.306 126.334 104.583C123.77 100.861 119.133 98.7369 114.621 99.0123C112.939 99.1149 111.27 99.5287 109.766 100.289C104.578 102.914 102.195 109.843 104.391 115.227C106.586 120.611 112.851 123.886 118.587 122.929L118.587 122.929Z" fill="#00160A"/>
<path fill-rule="evenodd" clip-rule="evenodd" d="M153.766 90.0072C153.017 89.3418 151.822 89.376 151.092 88.6899C151.297 87.9459 151.984 87.4571 152.466 86.8544C153.606 85.4297 153.486 83.1551 152.204 81.8579C151.555 81.2017 150.613 80.6992 150.441 79.7924C151.783 79.5619 153.139 79.1294 154.149 78.2171C155.159 77.3048 155.745 75.826 155.301 74.5393C155.165 74.1442 154.936 73.7668 154.931 73.3488C154.926 72.9309 155.289 72.4682 155.691 72.5829C157.843 73.1969 160.359 71.7656 160.931 69.6019C161.176 68.6724 162.544 68.7641 163.403 69.1966C164.261 69.6291 165.355 70.176 166.085 69.5499C166.703 69.02 166.816 67.7892 167.629 67.8046C168.051 67.8126 168.349 68.1964 168.643 68.4984C169.656 69.5399 171.342 69.8555 172.663 69.2511C173.125 69.0397 173.553 68.7254 174.055 68.6446C174.557 68.5637 175.175 68.8461 175.207 69.3534C175.305 70.8878 176.981 72.113 178.473 71.7401C179.042 71.5978 180.008 71.6287 179.815 72.1829C179.227 73.8746 180.485 75.9469 182.258 76.2048C182.709 76.2704 183.188 76.2388 183.597 76.4418C184.005 76.6449 184.276 77.2242 183.969 77.5613C182.65 79.0091 183.207 81.6941 184.992 82.4981C185.474 82.7148 185.36 83.4659 184.996 83.8479C184.631 84.2298 184.106 84.4618 183.84 84.9174C183.376 85.7094 183.928 86.7192 184.601 87.3426C185.275 87.9661 186.121 88.4899 186.437 89.3516C185.169 88.8674 183.598 89.3658 182.842 90.4924C182.085 91.619 182.217 93.2615 183.145 94.2522C182.655 95.1329 181.346 94.7822 180.343 94.8707C179.121 94.9782 178.053 96.0355 177.932 97.2554C177.879 97.7861 177.984 98.3429 177.795 98.8416C177.606 99.3404 176.916 99.7009 176.539 99.3239C175.136 97.9217 172.453 98.2037 171.372 99.8668C171.115 100.262 170.863 100.767 170.393 100.81C169.655 100.877 169.419 99.8092 168.818 99.375C168.073 98.8368 167.014 99.4474 166.49 100.203C165.966 100.958 165.639 101.902 164.868 102.402C163.403 101.326 163.847 98.281 162.047 98.0321C161.269 97.9247 160.585 98.5016 159.849 98.7737C159.113 99.0459 157.978 98.6822 158.116 97.9097C158.341 96.6456 158.15 94.9607 156.909 94.6329C155.684 94.3094 154.116 95.5836 153.271 94.6398C154.187 93.2088 155.037 91.1358 153.766 90.0072ZM154.583 82.1366C154.02 83.1551 154.123 84.3907 154.018 85.5494C153.913 86.708 153.426 88.0161 152.314 88.3577C153.571 88.4469 154.747 89.2798 155.249 90.4359C155.751 91.5921 155.556 93.0201 154.762 93.9992C155.792 93.2274 157.364 93.4522 158.299 94.3368C159.233 95.2213 159.569 96.617 159.378 97.8898C160.438 97.1324 161.932 97.0364 163.08 97.652C164.228 98.2676 164.975 99.5651 164.93 100.867C165.247 99.7119 166.154 98.7022 167.313 98.3983C168.471 98.0943 169.83 98.5888 170.413 99.6349C170.467 98.8466 171.211 98.2882 171.942 97.9892C173.509 97.3487 175.347 97.4046 176.872 98.1391C176.686 95.6797 179.257 93.4226 181.672 93.9264C180.916 93.1384 180.959 91.8556 181.379 90.8478C181.908 89.5773 183.147 88.4705 184.515 88.6163C183.721 88.3255 183.079 87.6453 182.835 86.8349C182.426 85.4756 183.171 83.959 184.329 83.1384C182.867 82.8313 182.397 81.0131 182.215 79.5302C182.121 78.7573 182.167 77.7449 182.905 77.4964C181.382 77.0661 180.007 76.1292 179.05 74.8694C178.607 74.2866 178.29 73.3666 178.852 72.8981C177.685 72.8375 176.533 72.4875 175.53 71.888C174.766 71.4318 174.015 70.5957 174.304 69.7545C172.261 70.7642 169.686 70.6039 167.784 69.3485C167.209 70.2531 166.082 70.6915 165.01 70.6876C163.938 70.6836 162.905 70.3017 161.924 69.8707C162.04 70.5799 161.562 71.2465 161.043 71.7439C159.724 73.0084 157.951 73.7888 156.128 73.9072C156.939 76.696 154.778 79.9511 151.893 80.2856C152.59 81.1389 153.546 81.7634 154.583 82.1366Z" fill="#00160A"/>
<path fill-rule="evenodd" clip-rule="evenodd" d="M225.478 122.1C223.651 122.35 221.767 122.172 220.019 121.586C214.476 119.727 210.852 113.387 212.064 107.667C213.276 101.947 219.159 97.6214 224.98 98.17C230.801 98.7186 235.772 104.067 235.894 109.913C236.016 115.759 231.272 121.31 225.478 122.1M229.662 119.63C233.557 117.267 235.695 112.324 234.75 107.867C233.806 103.41 229.847 99.7594 225.328 99.1785C220.809 98.5977 216.056 101.128 214.015 105.202C211.974 109.275 212.792 114.598 215.963 117.869C219.422 121.44 225.412 122.21 229.662 119.63Z" fill="#00160A"/>
<path fill-rule="evenodd" clip-rule="evenodd" d="M168.569 70.877C173.539 70.8202 178.423 73.7788 180.675 78.2094C182.926 82.64 182.437 88.3297 179.461 92.3104C176.486 96.2911 171.167 98.3714 166.28 97.4662C161.964 96.6666 158.133 93.6041 156.402 89.5697C154.67 85.5353 155.091 80.6485 157.486 76.9692C159.881 73.2899 164.179 70.9272 168.569 70.877ZM181.249 83.4713C181.124 81.4919 180.52 79.5445 179.501 77.8425C176.397 72.6528 169.203 70.3812 163.682 72.8471C158.16 75.313 155.05 82.1866 156.843 87.9619C158.636 93.7372 165.091 97.6414 171.039 96.5471C176.986 95.4528 181.629 89.5065 181.249 83.4713V83.4713Z" fill="#00160A"/>
<path fill-rule="evenodd" clip-rule="evenodd" d="M192.704 93.1224C190.786 95.3629 187.718 96.562 184.789 96.2161C183.776 96.0965 182.213 96.3495 182.485 97.3324C185.947 98.5494 189.41 99.7665 192.872 100.983C194.79 101.657 195.339 104.413 194.198 106.096C193.057 107.778 190.8 108.406 188.783 108.158C186.766 107.909 184.919 106.939 183.124 105.986C181.314 105.024 179.505 104.063 177.695 103.102C180.137 102.137 182.785 103.618 185.1 104.859C187.414 106.1 190.486 107.069 192.471 105.35C192.772 105.089 193.038 104.755 193.092 104.361C193.22 103.42 192.172 102.793 191.292 102.434C188.511 101.303 185.729 100.171 182.948 99.0388C181.543 98.4673 179.889 98.9631 178.685 99.885C177.481 100.807 176.626 102.098 175.753 103.338C173.906 105.962 171.68 108.599 168.598 109.492C165.516 110.385 161.515 108.641 161.198 105.448C160.999 103.441 162.259 101.563 163.751 100.206C165.243 98.8493 167.019 97.8089 168.386 96.3256C168.558 96.1384 168.732 95.9263 168.753 95.6726C168.797 95.1435 168.202 94.8176 167.704 94.6338C165.019 93.6429 162.333 92.652 159.648 91.6611C158.487 91.2326 159.209 89.2268 160.438 89.0779C161.667 88.9291 162.745 89.8181 163.727 90.5715C166.318 92.5598 169.911 93.9533 172.804 92.4376C174.867 91.3568 176.054 88.8247 175.566 86.5477C174.9 83.4444 176.065 80.0177 178.483 77.9627C180.902 75.9077 184.472 75.312 187.427 76.4702C185.171 77.5315 184.142 80.6116 185.307 82.8158C186.472 85.0199 189.597 85.9047 191.744 84.6386C192.531 84.1746 193.578 83.4897 194.213 84.147C194.389 84.3297 194.473 84.5806 194.541 84.8251C195.334 87.6659 194.622 90.8819 192.704 93.1224ZM178.217 84.4837C178.209 87.8782 180.114 91.3732 183.263 92.6408C186.412 93.9085 190.589 92.339 191.616 89.1034C191.844 88.3835 191.452 87.2253 190.764 87.5368C188.887 88.3864 186.675 87.404 185.089 86.0878C184.057 85.2302 183.121 84.1806 182.727 82.8973C182.332 81.6141 182.59 80.0661 183.618 79.203C182.005 78.842 180.208 79.5173 179.231 80.8514C178.476 81.883 178.22 83.2054 178.217 84.4837ZM164.536 105.876C168.634 109.927 171.073 104.619 172.065 103.48C174.365 100.839 176.803 98.3175 179.366 95.9305C179.869 95.4613 179.888 94.6369 179.595 94.0136C179.303 93.3903 178.767 92.9212 178.246 92.4711C177.471 91.8012 176.222 91.993 175.413 92.6228C174.605 93.2525 160.438 101.824 164.536 105.876Z" fill="#10403B"/>
<path fill-rule="evenodd" clip-rule="evenodd" d="M121.695 104.383C125.431 104.084 129.269 105.447 131.98 108.036C136.18 112.046 137.264 118.945 134.498 124.05C131.731 129.156 125.359 132.015 119.706 130.686C114.322 129.421 110.01 124.489 109.474 118.984C108.938 113.479 112.218 107.808 117.257 105.528C118.656 104.895 120.165 104.506 121.695 104.383M128.178 108.589C126.856 107.69 125.403 106.937 123.831 106.647C122.042 106.316 120.169 106.606 118.492 107.309C114.229 109.095 111.322 113.722 111.6 118.336C111.878 122.95 115.341 127.208 119.811 128.385C124.281 129.562 129.413 127.543 131.852 123.617C134.292 119.691 133.817 114.171 130.716 110.743C129.97 109.918 129.098 109.214 128.178 108.589V108.589Z" fill="#00160A"/>
<path fill-rule="evenodd" clip-rule="evenodd" d="M116.477 44.7981C116.506 47.0445 115.932 49.4468 116.971 51.4386C118.896 55.1283 124.303 54.4425 128.279 53.2158C125.011 49.4958 121.743 45.7759 118.474 42.056C125.245 35.1427 132.016 28.2294 138.787 21.3161C139.351 20.7397 140.003 20.1237 140.81 20.108C141.74 20.0899 142.468 20.8681 143.063 21.5828C145.281 24.243 147.499 26.9032 149.717 29.5635C151.544 31.7553 153.284 35.3053 151.047 37.0774C159.438 36.508 167.829 35.9386 176.22 35.3692C174.649 26.3947 177.536 17.305 180.387 8.65136C180.671 7.78881 181.014 6.85073 181.802 6.39947C182.354 6.08337 183.023 6.07072 183.659 6.06633C198.979 5.96068 214.298 5.85503 229.618 5.74938C230.546 5.74298 231.525 5.74948 232.327 6.21658C233.015 6.61741 233.478 7.30476 233.913 7.97224C246.873 27.8973 254.965 50.9648 257.292 74.6201C257.583 77.5873 257.903 80.8294 259.997 82.9514C263.185 86.1819 263.529 91.8112 260.756 95.405C262.795 96.8844 262.292 100.3 260.425 101.992C258.557 103.683 255.904 104.115 253.411 104.475C250.102 104.952 246.502 105.378 243.61 103.702C248.347 102.592 253.091 101.508 257.841 100.45C255.734 86.5761 253.627 72.7019 251.52 58.8278C250.826 54.2526 250.128 49.6614 248.832 45.2186C247.438 40.4346 245.368 35.8794 243.305 31.3433C240.055 24.199 236.806 17.0547 233.557 9.91046C233.203 9.13205 232.819 8.31676 232.121 7.82281C231.276 7.22462 230.16 7.22603 229.125 7.25068C214.703 7.594 200.28 7.93733 185.858 8.28065C185.027 8.30045 184.131 8.34236 183.477 8.85723C182.94 9.28074 182.667 9.94937 182.432 10.5919C176.753 26.1096 180.08 43.2995 183.466 59.4731C184.089 62.4443 180.052 63.9623 177.028 64.2274C142.503 67.2541 107.979 70.2809 73.4536 73.3076C73.0301 76.0449 72.9106 78.8291 73.0982 81.5926C75.3959 81.7946 77.6936 81.9966 79.9914 82.1986C79.2626 82.4854 78.5338 82.7723 77.8051 83.0592C79.1637 90.1994 79.9147 97.4552 80.0473 104.722C80.0877 106.934 82.0046 108.754 84.1161 109.413C86.2275 110.072 88.5013 109.827 90.6989 109.575C88.3597 110.555 85.9219 111.552 83.3889 111.428C80.8559 111.304 78.2037 109.707 77.7362 107.214C76.2702 99.3979 75.4259 91.4651 75.214 83.5154C73.8828 83.5478 72.5516 83.5802 71.2203 83.6126C70.7703 80.286 70.5891 76.9231 70.6792 73.5674C70.6985 72.8452 70.757 72.0564 71.2499 71.5282C71.7439 70.9988 72.528 70.8869 73.2475 70.8061C76.9911 70.3858 80.7347 69.9655 84.4784 69.5452C83.3724 61.865 82.2664 54.1848 81.1604 46.5047C81.0649 45.8415 80.9824 45.1127 81.3429 44.5479C81.7436 43.9199 82.5484 43.712 83.2775 43.5597C93.0331 41.5215 102.96 40.3055 112.919 39.9288C115.164 39.8438 116.448 42.5517 116.477 44.7981ZM85.8906 68.7701C85.9155 68.9878 85.9529 69.2292 86.1246 69.3654C86.2916 69.4979 86.5275 69.4843 86.7398 69.4641C96.535 68.534 106.33 67.6039 116.125 66.6738C116.396 66.6481 116.704 66.6008 116.851 66.3729C116.967 66.1941 116.943 65.9623 116.915 65.7512C115.914 58.2354 114.913 50.7197 113.912 43.2039C113.885 42.9975 113.851 42.7773 113.711 42.6229C113.524 42.4154 113.211 42.3938 112.931 42.3877C103.252 42.1759 93.5481 43.1619 84.11 45.3162C83.8531 45.3748 83.5718 45.4506 83.4249 45.6694C83.2873 45.8745 83.31 46.1434 83.338 46.3888C84.1889 53.8492 85.0398 61.3096 85.8906 68.7701ZM177.024 38.724C176.982 38.3755 176.909 37.9777 176.607 37.8001C176.414 37.6869 176.175 37.6961 175.952 37.7087C167.231 38.2011 158.51 38.6934 149.79 39.1858C149.598 39.1966 149.39 39.2134 149.245 39.3396C149.033 39.5237 149.045 39.8505 149.075 40.1297C149.873 47.6591 150.671 55.1885 151.469 62.7179C151.494 62.955 151.529 63.2119 151.697 63.3802C151.914 63.5967 152.263 63.5835 152.568 63.5555C161.617 62.7259 170.665 61.8964 179.714 61.0669C178.817 53.6192 177.921 46.1716 177.024 38.724ZM130.179 51.4099C130.306 51.5255 130.445 51.6466 130.616 51.6667C130.857 51.6951 131.068 51.5155 131.244 51.3482C137.139 45.7455 144.012 41.1212 149.907 35.5185C150.173 35.2662 150.459 34.9668 150.447 34.6007C150.438 34.3554 150.295 34.138 150.156 33.9357C147.806 30.5167 144.33 26.2209 141.694 23.0177C141.435 22.7031 141.101 22.3582 140.696 22.4095C140.438 22.4423 140.232 22.632 140.045 22.8123C133.533 29.0857 127.022 35.359 120.51 41.6324C120.365 41.772 120.209 41.936 120.212 42.1373C120.215 42.339 120.376 42.4988 120.525 42.6345C123.743 45.5596 126.961 48.4848 130.179 51.4099ZM149.023 54.49C148.972 54.1671 148.901 53.8088 148.634 53.6201C148.397 53.4526 148.08 53.4731 147.792 53.5006C138.777 54.3589 129.763 55.2172 120.749 56.0754C120.278 56.1203 119.725 56.2188 119.52 56.6454C119.407 56.8802 119.436 57.1553 119.466 57.414C119.77 59.9881 120.074 62.5622 120.379 65.1362C120.422 65.4991 120.491 65.9074 120.793 66.113C121.034 66.2776 121.352 66.2587 121.643 66.2335C130.966 65.4249 140.289 64.6163 149.611 63.8078C149.844 63.7876 150.103 63.7539 150.249 63.5722C150.399 63.385 150.37 63.1161 150.333 62.8789C149.896 60.0826 149.459 57.2863 149.023 54.49ZM147.149 41.0471C147.128 40.8909 147.055 40.6901 146.898 40.7024C146.831 40.7076 146.776 40.7537 146.726 40.7976C142.089 44.8488 137.452 48.9001 132.815 52.9513C137.636 52.5471 142.453 52.0874 147.264 51.5725C147.678 51.5283 148.155 51.4427 148.353 51.077C148.482 50.8383 148.449 50.5482 148.412 50.2793C147.991 47.2019 147.57 44.1245 147.149 41.0471ZM259.053 84.4257C259.497 86.9887 259.942 89.5518 260.386 92.1148C260.43 92.3692 260.521 92.6752 260.773 92.7307C261.183 92.8208 261.324 92.2047 261.268 91.789C260.967 89.5712 260.667 87.3533 260.367 85.1355C260.313 84.7385 260.234 84.2981 259.913 84.0583C259.592 83.8186 258.985 84.0309 259.053 84.4257Z" fill="#00160A"/>
<path fill-rule="evenodd" clip-rule="evenodd" d="M38.544 135.237C29.9776 135.373 0.518651 137.556 0.0097567 136.463C-0.641294 135.064 31.4835 133.226 38.4859 133.115L40.6793 133.085C47.0462 133.016 38.544 135.237 38.544 135.237ZM103.973 132.561C106.054 132.561 107.682 133.234 106.282 133.726C104.881 134.218 100.349 135.253 92.7607 135.428C85.1721 135.602 76.376 135.783 63.3784 136.039C62.6247 136.054 62.0017 135.455 61.9869 134.701C61.972 133.947 62.571 133.324 63.3247 133.309L86.3402 132.84C93.3277 132.689 97.7012 132.561 103.973 132.561ZM207.936 131.762C208.69 131.75 209.311 132.351 209.323 133.105C209.335 133.859 208.733 134.479 207.979 134.491L204.781 134.531L194.995 134.598C193.026 134.618 113.349 135.127 112.269 133.959C111.189 132.791 112.847 132.58 113.6 132.561C113.6 132.561 194.969 131.866 197.097 131.85L205.235 131.796C206.181 131.787 207.037 131.776 207.936 131.762ZM296.395 129.136C296.395 129.136 298.845 128.713 316.737 130.053C317.489 130.109 318.052 130.764 317.996 131.516C317.94 132.267 309.092 131.888 296.997 131.866L293.671 131.872C284.79 131.911 276.54 132.152 262.847 132.715L245.564 133.445C238.189 133.747 233.789 133.894 228.438 134.021C227.685 134.038 227.059 133.442 227.041 132.688C227.024 131.935 227.62 131.309 228.374 131.292L232.671 131.179C237.782 131.032 243.034 130.826 252.346 130.428L262.22 130.009C277.66 129.371 286.245 129.136 296.395 129.136Z" fill="#00160A"/>
</svg>
