<svg width="150" height="150" viewBox="0 0 150 150" fill="none" xmlns="http://www.w3.org/2000/svg">
<g clip-path="url(#clip0_46_2369)">
<path fill-rule="evenodd" clip-rule="evenodd" d="M16.4956 80.4947C17.3329 71.695 21.3267 67.4584 27.8065 66.8224H62.2172C69.8862 69.2587 71.8286 75.3958 68.8148 84.7398C61.9409 117.979 16.6216 117.242 16.4956 99.5845V80.4947Z" fill="#127369" stroke="#10403B" stroke-width="4.86192" stroke-miterlimit="10" stroke-linecap="round" stroke-linejoin="round"/>
<path fill-rule="evenodd" clip-rule="evenodd" d="M135.149 80.4947C134.32 71.695 130.326 67.4584 123.838 66.8224H89.4352C81.758 69.2587 79.8238 75.3958 82.8297 84.7398C89.7033 117.979 135.031 117.242 135.148 99.5845V80.4947H135.149Z" fill="#127369" stroke="#10403B" stroke-width="4.86192" stroke-miterlimit="10" stroke-linecap="round" stroke-linejoin="round"/>
<path d="M22.7418 40.3146L7.66333 54.9249V82.4956H16.496" stroke="#10403B" stroke-width="4.86192" stroke-miterlimit="10" stroke-linecap="round" stroke-linejoin="round"/>
<path d="M128.761 40.3146L143.848 54.9249V82.4956H135.007" stroke="#10403B" stroke-width="4.86192" stroke-miterlimit="10" stroke-linecap="round" stroke-linejoin="round"/>
<path d="M62.217 66.8224H89.4353" stroke="#10403B" stroke-width="4.86192" stroke-miterlimit="10" stroke-linecap="round" stroke-linejoin="round"/>
<path d="M70.0283 79.4816H81.6243" stroke="#10403B" stroke-width="4.86192" stroke-miterlimit="10" stroke-linecap="round" stroke-linejoin="round"/>
<path d="M43.7143 77.0785L26.9861 96.4024" stroke="#10403B" stroke-width="4.86192" stroke-miterlimit="10" stroke-linecap="round" stroke-linejoin="round"/>
<path d="M52.1543 83.4923L45.6489 91.3957" stroke="#10403B" stroke-width="4.86192" stroke-miterlimit="10" stroke-linecap="round" stroke-linejoin="round"/>
<path d="M106.315 77.0785L123.042 96.4024" stroke="#10403B" stroke-width="4.86192" stroke-miterlimit="10" stroke-linecap="round" stroke-linejoin="round"/>
<path d="M97.875 83.4923L104.389 91.3957" stroke="#10403B" stroke-width="4.86192" stroke-miterlimit="10" stroke-linecap="round" stroke-linejoin="round"/>
</g>
<defs>
<clipPath id="clip0_46_2369">
<rect width="150" height="150" fill="white"/>
</clipPath>
</defs>
</svg>
