<svg width="150" height="150" viewBox="0 0 150 150" fill="none" xmlns="http://www.w3.org/2000/svg">
<g clip-path="url(#clip0_46_2341)">
<path d="M38.8824 22.4471C43.8832 7.83086 57.7934 1.66701 73.16 1.42419C81.321 1.72104 89.9488 4.05509 96.0288 8.688C102.342 13.4982 106.268 18.4164 107.801 26.099C108.886 31.5375 108.59 34.705 107.998 38.8602L106.906 43.9143C107.772 43.5717 108.71 43.4535 109.634 43.5708C110.286 43.6382 110.916 43.8428 111.484 44.1711C112.052 44.4994 112.543 44.944 112.927 45.4756C113.329 46.1669 113.561 46.9434 113.605 47.7417C113.909 50.7957 113.851 53.8388 112.26 56.6214C111.525 58.0008 110.48 59.1905 109.206 60.0967C107.81 60.9655 106.256 61.5516 104.634 61.8219L104.313 61.865C102.503 68.9376 95.4066 77.4465 83.048 80.8653C77.1652 82.6208 68.0014 82.8539 61.5316 81.2095C50.0525 78.0529 42.6193 69.2059 41.2565 61.8559L40.8243 61.8207C39.2023 61.5507 37.6491 60.965 36.2527 60.0967C34.9798 59.1899 33.935 57.9998 33.2005 56.6202C31.6095 53.8376 31.5512 50.7927 31.856 47.7405C31.8996 46.9422 32.1318 46.1657 32.5334 45.4744C32.9171 44.9429 33.4088 44.4985 33.9762 44.1702C34.5436 43.8419 35.174 43.6372 35.826 43.5695C37.1985 43.3849 38.5893 43.7386 39.7068 44.5566L38.7513 39.1054C37.119 35.2477 36.9763 29.4141 38.1582 24.8607C38.3731 24.0323 38.6145 23.2277 38.8824 22.4471Z" fill="white"/>
<path d="M32.3505 127.174C34.5213 125.175 36.8729 123.077 39.3527 122.161L39.8486 122.005C37.4115 120.155 35.2927 117.92 33.5761 115.388C32.8149 114.279 30.5713 108.938 30.7983 107.618C30.5439 104.262 30.8807 100.888 31.7932 97.6485C33.496 92.173 36.3739 86.0899 42.1098 81.389C44.9204 79.0926 47.717 77.1434 51.0053 76.0847C54.1589 78.4373 57.7258 80.1774 61.521 81.2148C68.0018 82.8592 77.1656 82.6261 83.0599 80.8706C87.0935 79.7811 90.899 77.977 94.2956 75.5438C98.5169 76.3694 101.884 78.6191 105.265 81.389C111.001 86.0899 113.879 92.173 115.584 97.6485C116.502 100.887 116.841 104.262 116.586 107.618C116.525 110.756 114.776 113.855 113.988 114.936C112.334 117.189 110.428 119.246 108.308 121.067C110.103 121.481 115.854 126.092 118.692 129.373L119.326 129.872C119.842 128.722 120.588 127.689 121.518 126.837C122.446 126.033 123.538 125.442 124.718 125.105C125.898 124.768 127.138 124.693 128.35 124.886C129.547 125.08 130.685 125.541 131.679 126.234C132.674 126.928 133.499 127.837 134.095 128.893C134.71 130.103 135.066 131.429 135.138 132.784C135.355 135.651 134.317 138.407 132.783 140.913C131.431 143.067 129.569 144.854 127.361 146.116C125.153 147.378 122.668 148.076 120.126 148.147C119.236 148.134 118.362 147.912 117.573 147.501C116.783 147.09 116.101 146.501 115.579 145.78C110.238 146.967 106.212 146.862 100.646 146.017C100.646 146.017 85.8013 143.752 78.0919 142.654C73.6362 141.958 69.0777 142.368 64.8172 143.846C52.4519 148.703 45.5177 149.393 32.2874 147.829L31.8278 147.774C31.2041 148.027 30.5361 148.154 29.8629 148.146C27.3204 148.075 24.8349 147.377 22.6267 146.115C20.4185 144.853 18.5558 143.066 17.2037 140.911C15.6697 138.404 14.6317 135.65 14.8484 132.783C14.9202 131.427 15.2757 130.101 15.8919 128.891C16.4871 127.835 17.3126 126.926 18.3071 126.232C19.3015 125.539 20.4394 125.078 21.6363 124.884C22.8485 124.691 24.0883 124.766 25.2686 125.103C26.4489 125.44 27.5411 126.031 28.4685 126.835C29.1829 127.481 29.7863 128.24 30.2544 129.081C30.9325 128.488 31.6318 127.836 32.3505 127.174Z" fill="#127369"/>
<path d="M51.5122 90.724C51.4418 87.4405 52.336 84.338 52.7998 82.4543C53.1721 81.0065 53.6821 79.5976 54.3228 78.247C56.5911 79.5271 59.0086 80.5229 61.5204 81.2117C68.0012 82.8562 77.165 82.6231 83.0593 80.8675C86.8392 79.8435 90.4215 78.1951 93.6582 75.9906C94.1957 76.6941 94.6717 77.4425 95.0811 78.2275C97.2512 82.9151 98.2796 96.2231 91.3618 100.043C86.2268 102.874 81.8465 103.542 77.1571 103.969C72.2789 104.354 67.3709 104.059 62.5737 103.094C53.8141 100.798 51.616 95.5651 51.5122 90.724Z" fill="white"/>
<path d="M57.4906 116.915C58.3606 116.715 59.2569 116.655 60.1458 116.737C60.7212 116.797 61.2677 117.019 61.7213 117.378C62.175 117.737 62.517 118.218 62.7075 118.764C63.0056 119.879 62.1721 121.245 61.0187 121.231C62.9655 121.739 64.0157 124.074 63.6241 126.046C63.2326 128.019 61.7466 129.611 60.0882 130.75C59.2372 131.416 58.2045 131.809 57.1258 131.878C56.3891 131.842 55.6688 131.648 55.0139 131.309C52.5 130.124 50.4609 128.123 49.2283 125.632" fill="white"/>
<path d="M90.5692 116.62C89.7179 116.353 88.8295 116.222 87.9371 116.233C87.3586 116.248 86.7963 116.427 86.3158 116.749C85.8354 117.072 85.4567 117.524 85.2243 118.054C84.8394 119.141 85.5624 120.568 86.7127 120.646C84.7326 120.998 83.5015 123.241 83.7383 125.239C83.975 127.237 85.3281 128.939 86.8912 130.205C87.6867 130.936 88.6849 131.41 89.7546 131.563C90.4914 131.586 91.2244 131.449 91.9035 131.163C94.5019 130.179 96.6912 128.346 98.1153 125.96" fill="white"/>
<path d="M115.189 144.375C111.683 145.145 108.079 145.37 104.505 145.042C102.861 144.895 101.232 144.645 99.6011 144.397C94.8687 143.677 90.135 142.966 85.4001 142.262C82.7292 141.866 80.0533 141.424 77.3696 141.106C74.13 140.729 70.851 140.874 67.657 141.534C66.1974 141.854 64.7668 142.294 63.3799 142.85C60.189 144.108 56.9147 145.144 53.5805 145.95C46.5467 147.575 39.4007 147.21 32.2838 146.375C31.898 146.377 31.5287 146.531 31.2559 146.804C30.9831 147.077 30.829 147.446 30.8269 147.832C30.8359 148.215 30.9922 148.581 31.2635 148.852C31.5348 149.123 31.9002 149.28 32.2838 149.289C38.8234 150.057 45.3843 150.421 51.9008 149.263C55.0477 148.676 58.1429 147.839 61.1569 146.76C63.0563 146.098 64.9035 145.255 66.846 144.723C69.4719 144.021 72.1888 143.721 74.9044 143.832C77.7005 144.022 80.4839 144.368 83.2415 144.868C88.1905 145.597 93.1376 146.339 98.0829 147.094C99.9563 147.379 101.828 147.68 103.713 147.88C107.807 148.311 111.943 148.076 115.962 147.184C117.793 146.783 117.018 143.973 115.187 144.375H115.189Z" fill="#10403B"/>
<path d="M32.0582 129.42C33.3408 128.252 34.5938 127.053 35.9353 125.949C36.1016 125.813 36.2692 125.679 36.4379 125.546C36.4986 125.496 36.6037 125.419 36.4804 125.513C36.5745 125.442 36.6686 125.371 36.7633 125.301C37.0996 125.054 37.4426 124.815 37.7953 124.591C38.1364 124.373 38.4855 124.166 38.8436 123.979C39.0185 123.888 39.1957 123.797 39.3748 123.717C39.4531 123.681 39.5326 123.645 39.6121 123.611C39.3214 123.732 39.7129 123.578 39.7408 123.567C40.1087 123.457 40.4199 123.209 40.6096 122.875C40.7992 122.541 40.8527 122.147 40.7588 121.775C40.6521 121.405 40.4048 121.091 40.0698 120.901C39.7348 120.711 39.3387 120.659 38.9663 120.757C35.4345 122.087 32.7374 124.868 29.9979 127.356C29.7275 127.631 29.5759 128.001 29.5759 128.387C29.5759 128.772 29.7275 129.142 29.9979 129.417C30.2752 129.682 30.6442 129.83 31.028 129.83C31.4119 129.83 31.7809 129.682 32.0582 129.417V129.42Z" fill="#10403B"/>
<path d="M107.917 122.469C107.961 122.48 108.303 122.615 108.318 122.603C108.262 122.645 107.969 122.436 108.241 122.577C108.314 122.615 108.389 122.65 108.462 122.688C108.844 122.887 109.212 123.113 109.574 123.349C110.019 123.638 110.454 123.944 110.882 124.259C111.138 124.447 111.391 124.637 111.642 124.83C111.434 124.67 111.789 124.946 111.794 124.952C111.926 125.056 112.058 125.161 112.189 125.267C114.16 126.815 115.99 128.534 117.659 130.404C117.934 130.674 118.304 130.825 118.689 130.825C119.074 130.825 119.444 130.674 119.719 130.404C119.985 130.127 120.134 129.758 120.134 129.374C120.134 128.989 119.985 128.62 119.719 128.343C117.986 126.402 116.079 124.622 114.023 123.026C113.045 122.248 112.048 121.484 110.997 120.806C110.295 120.303 109.516 119.917 108.69 119.663C108.318 119.56 107.92 119.61 107.583 119.8C107.247 119.991 107.001 120.308 106.898 120.68C106.795 121.053 106.845 121.451 107.036 121.787C107.227 122.123 107.543 122.37 107.916 122.473L107.917 122.469Z" fill="#10403B"/>
<path d="M92.3949 76.7196C92.9544 77.4538 93.4473 78.2366 93.8676 79.0585C94.026 79.3887 93.7547 78.7605 93.8912 79.115C93.9192 79.1872 93.9477 79.2588 93.9744 79.3305C94.0758 79.6006 94.168 79.8768 94.253 80.1493C94.5914 81.2726 94.8416 82.4206 95.0015 83.5828C95.3531 86.1321 95.3378 88.7186 94.956 91.2636C94.5262 93.7488 93.7061 96.1448 91.9663 97.808C91.5693 98.1964 91.1182 98.5253 90.6272 98.7848C89.6577 99.3316 88.6547 99.8167 87.6242 100.237C85.7434 100.992 83.7909 101.554 81.7966 101.914C77.7945 102.636 73.7181 102.858 69.6614 102.573C67.4139 102.463 65.1794 102.169 62.9803 101.692C60.2624 101.124 57.7567 99.8099 55.7444 97.8967C54.9859 97.1175 54.3665 96.2141 53.913 95.2257C53.9033 95.2057 53.723 94.7899 53.8396 95.0709C53.7873 94.9453 53.7388 94.8178 53.692 94.6903C53.6147 94.4791 53.5435 94.2658 53.4784 94.0505C53.3151 93.498 53.1876 92.9355 53.0965 92.3666C53.0486 92.0807 53.0844 92.3059 53.0923 92.3635C53.0692 92.1905 53.051 92.0163 53.0352 91.8427C53.0073 91.5408 52.9883 91.2373 52.9782 90.9321C52.9593 90.3785 52.9691 89.8237 53.0006 89.2707C53.0316 88.7347 53.0844 88.1999 53.1548 87.6675C53.1063 88.0372 53.1609 87.6365 53.17 87.5783C53.1949 87.4223 53.2186 87.2662 53.2447 87.1108C53.2896 86.8462 53.3379 86.5819 53.3897 86.3181C53.8312 83.7952 54.5677 81.3329 55.5842 78.982C55.7681 78.6458 55.8164 78.252 55.7192 77.8814C55.622 77.5107 55.3867 77.1912 55.0615 76.9885C54.7271 76.7966 54.3307 76.7438 53.9577 76.8416C53.5848 76.9394 53.2652 77.1799 53.068 77.5112C51.9943 79.9283 51.1936 82.4577 50.6805 85.0524C50.1928 87.148 49.9942 89.3005 50.0905 91.4499C50.1964 93.9107 50.9786 96.2946 52.3511 98.3398C54.2359 100.85 56.8338 102.732 59.8055 103.742C62.1022 104.531 64.4878 105.032 66.9078 105.234C71.2339 105.729 75.6043 105.693 79.9215 105.125C84.2478 104.563 88.6094 103.426 92.3736 101.139C94.9129 99.597 96.4608 96.9321 97.2815 94.1428C98.083 91.2243 98.354 88.1856 98.0816 85.1714C97.9594 82.5814 97.3926 80.0317 96.4062 77.6338C95.9908 76.789 95.4902 75.9888 94.9123 75.2457C94.7097 74.9203 94.3903 74.6848 94.0195 74.5876C93.6488 74.4904 93.2549 74.5389 92.9188 74.723C92.5873 74.9202 92.3468 75.2397 92.249 75.6127C92.1512 75.9857 92.204 76.3822 92.3961 76.7166L92.3949 76.7196Z" fill="#10403B"/>
<path d="M68.386 94.2314C66.9841 94.0654 65.6411 93.5708 64.4664 92.7879C64.2713 92.6433 64.0865 92.4853 63.9133 92.315C63.8118 92.2167 63.7138 92.1155 63.6195 92.0115C63.5728 91.9605 63.5279 91.9077 63.4811 91.8561C63.3093 91.6643 63.5024 91.898 63.4119 91.7766C63.2387 91.5446 63.0814 91.3012 62.9409 91.0481C62.8765 90.9334 62.8195 90.8156 62.7588 90.6979C62.729 90.6372 62.7029 90.5795 62.675 90.52C62.5748 90.3045 62.7879 90.8332 62.6452 90.4465C62.4517 89.9193 62.3044 89.3762 62.2051 88.8233C62.1894 88.739 62.1766 88.6534 62.1645 88.5684C62.1675 88.589 62.1936 88.8112 62.1748 88.6364C62.1608 88.5089 62.1475 88.3808 62.1372 88.2527C62.1135 87.9553 62.1013 87.6578 62.0989 87.3598C62.096 86.7995 62.1243 86.2396 62.1839 85.6825C62.196 85.5611 62.2106 85.444 62.2246 85.3244C62.1827 85.6801 62.2331 85.271 62.2458 85.1884C62.2853 84.9286 62.3308 84.6706 62.38 84.4126C62.5463 83.5482 62.7709 82.6989 63.0028 81.8503C63.4975 80.0389 60.6876 79.2661 60.1928 81.0757C58.9532 85.6115 58.1999 91.4561 62.3429 94.8063C63.8702 96.0054 65.689 96.7768 67.6126 97.0414C67.9847 97.1323 68.3775 97.0776 68.7106 96.8885C69.0437 96.6994 69.292 96.3901 69.4046 96.024C69.5044 95.6515 69.4536 95.2548 69.2632 94.9195C69.0728 94.5842 68.7582 94.3372 68.3872 94.232L68.386 94.2314Z" fill="#10403B"/>
<path d="M86.1838 81.3429C86.2445 81.4643 86.2973 81.596 86.3622 81.7174C86.4515 81.885 86.2663 81.4594 86.3331 81.6482C86.3629 81.732 86.3987 81.8139 86.4302 81.8971C86.5474 82.2103 86.65 82.5284 86.7404 82.8501C86.8485 83.2314 86.9395 83.6158 87.0136 84.0035C87.0541 84.2107 87.0893 84.4183 87.1192 84.6263C87.0962 84.4673 87.1131 84.5656 87.1235 84.6676C87.1356 84.789 87.1496 84.9104 87.1599 85.0318C87.1969 85.4568 87.2145 85.8817 87.2097 86.3066C87.2072 86.5369 87.1979 86.7665 87.1817 86.9956C87.1751 87.0982 87.166 87.2008 87.1562 87.3034C87.1496 87.3713 87.1138 87.6518 87.1423 87.4551C87.0783 87.8944 86.983 88.3285 86.857 88.7542C86.7441 89.1706 86.5834 89.5725 86.378 89.9519C86.1917 90.2875 86.1421 90.6821 86.2395 91.0535C86.3368 91.4248 86.5737 91.7443 86.9007 91.9454C87.2353 92.1365 87.6314 92.1888 88.0042 92.0911C88.3769 91.9934 88.6964 91.7534 88.8942 91.4227C90.7056 87.9231 90.461 83.3558 88.6999 79.8702C88.5047 79.5365 88.1848 79.2941 87.8108 79.1963C87.4368 79.0984 87.0392 79.1532 86.7055 79.3484C86.3719 79.5437 86.1294 79.8636 86.0316 80.2376C85.9337 80.6116 85.9885 81.0092 86.1838 81.3429Z" fill="#10403B"/>
<path d="M73.5576 55.193C73.5064 55.2219 73.4537 55.248 73.3998 55.2713L73.7476 55.1244C73.6641 55.1589 73.5766 55.1828 73.4872 55.1954L73.8745 55.1438C73.7879 55.1536 73.7004 55.1523 73.6141 55.1402L74.0014 55.1924C73.951 55.1851 73.9012 55.1754 73.8514 55.1657C73.6808 55.1323 73.5084 55.1135 73.336 55.0916C73.141 55.083 72.9473 55.1264 72.7745 55.2173C72.5142 55.3311 72.2917 55.5168 72.1331 55.7526C71.9745 55.9884 71.8864 56.2645 71.8792 56.5485L71.9307 56.9358C71.9977 57.1791 72.1271 57.4007 72.3059 57.5787L72.6003 57.8063C72.8233 57.9374 73.0774 58.0061 73.336 58.0054H73.3445L72.9572 57.9532C73.018 57.9617 73.0841 57.9763 73.1473 57.9878C73.3069 58.0175 73.469 58.0358 73.6329 58.0552C73.6705 58.0594 73.7082 58.0625 73.7464 58.0637C73.787 58.0642 73.8275 58.0622 73.8678 58.0576C74.0153 58.0418 74.1659 58.0236 74.3122 57.9969C74.3346 57.9927 74.3565 57.9878 74.3783 57.9823C74.4295 57.9692 74.4796 57.9524 74.5283 57.932C74.7018 57.8681 74.8709 57.7929 75.0345 57.7067C75.3508 57.5023 75.5867 57.1947 75.7023 56.8363C75.7626 56.6484 75.7716 56.4478 75.7284 56.2553C75.7197 56.0627 75.66 55.8758 75.5554 55.7138L75.3277 55.4188C75.1488 55.2411 74.9269 55.1127 74.6837 55.0461L74.2964 54.9939C74.0378 54.9935 73.7837 55.0622 73.5606 55.193H73.5576Z" fill="#10403B"/>
<path d="M67.6205 65.6724C69.1691 67.19 71.6076 67.6404 73.6909 67.6392C75.7743 67.638 78.2103 67.1887 79.7613 65.6724C80.0308 65.3984 80.1812 65.029 80.1796 64.6447C80.1781 64.2604 80.0247 63.8922 79.7529 63.6204C79.4811 63.3487 79.113 63.1953 78.7287 63.1937C78.3443 63.1922 77.975 63.3425 77.701 63.6121C77.6403 63.6691 77.3641 63.8895 77.5796 63.7335C77.7951 63.5775 77.4266 63.8324 77.3501 63.8798C77.2196 63.9599 77.0848 64.034 76.9483 64.1026C76.856 64.1487 76.7619 64.1912 76.6684 64.2343C76.8457 64.153 76.8129 64.1778 76.652 64.2343C75.7069 64.5872 74.7024 64.754 73.6939 64.7254C73.3904 64.7254 73.093 64.7151 72.7937 64.692C72.628 64.6793 72.4617 64.6653 72.2971 64.6428C72.4859 64.6683 72.2103 64.6252 72.1466 64.6137C71.6848 64.5328 71.2307 64.4128 70.7893 64.2549C70.7286 64.2331 70.3813 64.0728 70.7189 64.2343C70.6405 64.1967 70.5616 64.1627 70.4845 64.1244C70.3322 64.0498 70.181 63.9684 70.0378 63.8816C69.9959 63.8555 69.7524 63.6521 69.7154 63.6631C69.8053 63.637 69.9965 63.9059 69.8071 63.7268C69.7676 63.6886 69.7257 63.6528 69.6857 63.6139C69.4117 63.3444 69.0423 63.194 68.658 63.1956C68.2737 63.1971 67.9055 63.3505 67.6337 63.6223C67.362 63.894 67.2086 64.2622 67.207 64.6465C67.2055 65.0308 67.3558 65.4002 67.6254 65.6742L67.6205 65.6724Z" fill="#10403B"/>
<path d="M56.6898 46.5726C56.1471 48.3294 56.4883 52.3668 59.8027 52.7037C64.1849 52.6654 64.4302 47.7824 62.9593 45.4908C61.7574 43.6127 58.208 42.8405 56.6898 46.5726Z" fill="#10403B"/>
<path d="M89.738 46.5726C90.2806 48.33 89.9401 52.3674 86.6257 52.7037C82.2435 52.6654 81.9982 47.7824 83.4691 45.4908C84.6716 43.6127 88.2204 42.8405 89.738 46.5726Z" fill="#10403B"/>
<path d="M106.487 45.8166C107.937 44.7427 110.452 44.557 111.647 46.1656C112.221 46.939 112.2 48.1342 112.254 49.049C112.339 50.1678 112.311 51.2922 112.17 52.4053C111.877 54.5383 110.903 56.5199 109.394 58.0556C107.966 59.3605 106.166 60.1865 104.246 60.4182C103.875 60.523 103.56 60.7699 103.37 61.1053C103.179 61.4407 103.129 61.8377 103.229 62.2102C103.34 62.5775 103.588 62.8881 103.921 63.0775C104.255 63.2669 104.649 63.3207 105.021 63.2276C107.1 62.9099 109.057 62.0426 110.689 60.7155C112.321 59.3883 113.568 57.6494 114.303 55.6785C115.092 53.4724 115.38 51.1187 115.149 48.7874C114.991 46.4612 114.522 44.3196 112.397 43.0205C111.27 42.3544 109.974 42.0268 108.666 42.0767C107.357 42.1267 106.091 42.5521 105.017 43.3022C104.692 43.5051 104.457 43.8246 104.36 44.1952C104.263 44.5657 104.311 44.9595 104.495 45.2957C104.691 45.6272 105.011 45.8679 105.384 45.9657C105.757 46.0635 106.153 46.0106 106.487 45.8184V45.8166Z" fill="#10403B"/>
<path d="M40.4422 43.3007C39.4935 42.6375 38.3913 42.2272 37.2399 42.1087C36.0884 41.9901 34.9258 42.1672 33.8619 42.6232C32.8409 43.0412 31.9632 43.7466 31.3354 44.6538C30.7568 45.6307 30.4307 46.7365 30.3866 47.8711C29.9338 52.3789 30.7715 57.1678 34.2625 60.3578C35.9986 61.8937 38.1445 62.8906 40.4379 63.2267C40.81 63.317 41.2025 63.262 41.5355 63.073C41.8684 62.884 42.1168 62.5751 42.2299 62.2093C42.3298 61.8368 42.2791 61.44 42.0887 61.1046C41.8983 60.7693 41.5836 60.5224 41.2125 60.4173C39.3328 60.1892 37.5672 59.3936 36.151 58.1367C34.5954 56.5911 33.5909 54.5769 33.2925 52.4044C33.1515 51.2913 33.1232 50.1669 33.2081 49.0481C33.2609 48.1376 33.2415 46.9629 33.803 46.1871C34.9837 44.5566 37.5163 44.7388 38.9719 45.8168C39.3062 46.0091 39.7026 46.062 40.0756 45.9642C40.4485 45.8664 40.7679 45.6257 40.9648 45.2942C41.1511 44.9585 41.2008 44.5639 41.1034 44.1926C41.0061 43.8212 40.7692 43.5018 40.4422 43.3007Z" fill="#10403B"/>
<path d="M39.5767 59.9286C39.8492 66.181 43.8138 71.9285 48.4346 75.8797C51.3593 78.3735 54.6953 80.34 58.2934 81.6914C59.2828 82.0758 60.2968 82.3936 61.3286 82.6427C61.7584 82.7428 61.4191 82.6882 61.3559 82.6694C61.4597 82.6997 61.5684 82.7204 61.674 82.7453C61.8889 82.7958 62.1046 82.8436 62.3211 82.8885C62.8023 82.9897 63.2859 83.0803 63.7719 83.1605C65.844 83.4998 67.9365 83.6995 70.0354 83.7584C74.5573 83.9646 79.0837 83.4632 83.4509 82.2724C83.7821 82.1703 84.0664 81.954 84.2531 81.6619C84.4397 81.3698 84.5167 81.0209 84.4702 80.6774C84.4237 80.3339 84.2568 80.0181 83.9992 79.7861C83.7416 79.5542 83.4101 79.4212 83.0636 79.4108H83.052L83.4393 82.2724C92.0799 79.8509 100.445 74.3014 104.352 65.9771C105.189 64.2599 105.767 62.4282 106.067 60.5417C106.157 60.1696 106.101 59.7773 105.912 59.4445C105.723 59.1116 105.415 58.8632 105.049 58.7497C104.677 58.6497 104.28 58.7004 103.944 58.8908C103.609 59.0812 103.362 59.396 103.257 59.7671C102.225 66.9186 96.5616 72.8591 90.3304 76.3434C87.9077 77.6831 85.3345 78.7303 82.6648 79.463C82.3335 79.5651 82.0492 79.7814 81.8625 80.0735C81.6759 80.3656 81.5989 80.7145 81.6454 81.058C81.6919 81.4015 81.8588 81.7173 82.1164 81.9493C82.374 82.1812 82.7056 82.3142 83.052 82.3246H83.0636L82.6763 79.463C79.1242 80.4384 75.4529 80.9108 71.7696 80.8665C69.7697 80.8804 67.7708 80.7682 65.7849 80.5308C64.9957 80.4343 64.2066 80.3025 63.4247 80.1465C62.9913 80.0603 62.5627 79.9517 62.1305 79.8594C62.0352 79.8394 61.2436 79.6166 61.6758 79.7416C61.3669 79.6524 61.0585 79.5626 60.7525 79.4654C54.4843 77.4835 48.7023 73.3847 45.2069 67.763C43.6637 65.4182 42.73 62.7254 42.4904 59.9286C42.4085 58.0607 39.4941 58.0504 39.5767 59.9286Z" fill="#10403B"/>
<path d="M48.4313 104.835C51.1019 107.374 53.2788 110.386 54.8519 113.718C54.9927 114.015 55.1056 114.264 55.2192 114.558C55.2799 114.712 55.3351 114.868 55.3879 115.025C55.5597 115.537 55.3102 115.355 55.4814 114.6C55.4207 114.863 55.6805 114.338 55.5506 114.449C55.4671 114.56 55.3974 114.681 55.343 114.81C54.8756 115.563 54.3262 116.266 53.7896 116.974C53.5893 117.237 53.3119 117.592 52.9628 118.031C52.5508 118.554 52.1336 119.072 51.7111 119.586C50.9596 120.503 50.1945 121.409 49.4159 122.304C48.8459 122.954 48.2741 123.612 47.6482 124.209C47.5462 124.291 47.4497 124.379 47.3593 124.473C47.2779 124.574 47.7144 124.269 47.42 124.416C47.7095 124.273 48.3609 124.254 47.7532 124.213C48.2492 124.247 47.5304 124.166 47.389 124.135C45.0184 123.55 42.7991 122.468 40.8779 120.961C39.4723 119.919 38.179 118.735 37.019 117.425C35.932 116.29 35.0072 115.01 34.2709 113.622C33.7002 112.454 33.2083 111.25 32.7983 110.017C32.5986 109.427 32.434 108.833 32.289 108.228C32.272 108.158 32.2283 107.75 32.2629 108.145C32.2528 108.079 32.2469 108.011 32.2453 107.943C32.249 107.622 32.2366 107.301 32.2082 106.982C32.0068 103.256 32.5727 99.5288 33.8709 96.0309C35.2054 92.1503 37.273 88.5622 39.9613 85.4617C41.5293 83.7401 43.2763 82.1905 45.1727 80.8391C47.062 79.4052 49.1622 78.2728 51.3985 77.4822C53.171 76.8971 52.4116 74.0828 50.6239 74.6729C46.2666 76.1128 42.2699 78.9828 39.0374 82.2001C33.2185 88.2469 29.7538 96.1752 29.269 104.553C29.1552 106.105 29.2397 107.666 29.5203 109.197C29.9132 110.723 30.4414 112.211 31.0986 113.643C32.5728 116.888 34.7746 119.749 37.5332 122.005C39.9121 124.121 42.7019 125.724 45.7281 126.712C46.6387 126.987 47.9742 127.433 48.8665 126.942C49.4664 126.547 50.0018 126.062 50.4539 125.504C52.1603 123.667 53.7514 121.714 55.3011 119.745C56.0296 118.82 56.758 117.889 57.4312 116.924C57.8792 116.284 58.4146 115.577 58.3223 114.756C58.1604 113.969 57.8806 113.212 57.4925 112.509C57.1082 111.68 56.6807 110.871 56.2117 110.087C55.1206 108.247 53.8752 106.503 52.4887 104.874C51.8647 104.135 51.1984 103.432 50.4934 102.77C49.1251 101.491 47.06 103.547 48.4331 104.83L48.4313 104.835Z" fill="#10403B"/>
<path d="M93.8993 76.9413C97.7455 77.7238 101.023 79.8035 104.031 82.2505C107.016 84.6824 109.489 87.682 111.307 91.0756C112.93 94.0002 114.094 97.1568 114.759 100.435C115.418 103.974 115.632 108.051 114.242 111.439C112.981 114.51 110.553 117.053 108.136 119.258C106.9 120.394 105.576 121.429 104.176 122.354C103.625 122.719 103.06 123.06 102.48 123.376C102.247 123.503 102.01 123.625 101.771 123.74C101.637 123.806 101.502 123.868 101.367 123.93C101.205 124.001 101.193 124.007 101.329 123.95C101.247 123.984 101.166 124.016 101.083 124.048C100.697 124.192 100.302 124.307 99.8992 124.393C100.319 124.304 100.041 124.393 99.9357 124.382C100.149 124.421 100.359 124.475 100.565 124.543C100.274 124.39 100.829 124.813 100.606 124.578C100.084 124.026 99.5326 123.504 99.0233 122.935C97.5142 121.248 96.0731 119.496 94.6751 117.714C94.3224 117.266 94.1627 117.062 93.7463 116.5C93.4671 116.126 93.1903 115.749 92.9274 115.363C92.797 115.09 92.6374 114.833 92.4515 114.595C92.3034 114.47 92.5826 114.97 92.5359 114.8C92.4448 114.471 92.3356 115.864 92.5644 115.318C92.6925 115.015 92.7751 114.679 92.891 114.368C94.1671 110.772 96.2353 107.51 98.9426 104.823C100.313 103.537 98.2493 101.479 96.8823 102.762C94.0954 105.378 92.0557 108.871 90.5758 112.366C90.0901 113.513 89.3168 114.848 89.9353 116.066C90.2918 116.701 90.7006 117.306 91.1573 117.873C92.6749 119.912 94.2805 121.889 95.9359 123.816C96.6067 124.597 97.2829 125.377 98.0041 126.113C98.5304 126.649 99.1289 127.282 99.9357 127.291C101.089 127.305 102.31 126.712 103.311 126.218C104.687 125.518 105.997 124.694 107.223 123.756C110.471 121.42 113.286 118.533 115.539 115.227C119.945 108.402 118.21 99.3513 115.163 92.3534C113.563 88.608 111.28 85.1931 108.43 82.2833C105.393 79.1416 101.739 76.6616 97.6975 74.9988C96.7162 74.6236 95.7052 74.3312 94.6751 74.1247C94.3029 74.0316 93.9091 74.0854 93.5755 74.2748C93.2419 74.4642 92.9939 74.7748 92.8831 75.1421C92.784 75.5145 92.8351 75.911 93.0253 76.2461C93.2156 76.5813 93.5299 76.8283 93.9005 76.9341L93.8993 76.9413Z" fill="#10403B"/>
<path d="M57.8784 118.318C58.8812 118.144 60.1141 117.899 60.9591 118.633C61.2493 118.884 61.5115 119.746 61.0198 119.773C60.6735 119.783 60.3423 119.917 60.085 120.149C59.8277 120.381 59.6609 120.696 59.6145 121.04C59.568 121.383 59.6448 121.732 59.8312 122.024C60.0176 122.316 60.3016 122.532 60.6325 122.635C61.8575 122.996 62.4008 124.477 62.2236 125.658C61.9692 127.347 60.5136 128.738 59.1477 129.629C58.8084 129.907 58.4174 130.117 57.9971 130.244C57.5768 130.372 57.1354 130.415 56.6983 130.372C55.7625 130.125 54.8835 129.7 54.1105 129.117C52.5612 128.043 51.3136 126.589 50.4871 124.895C49.644 123.219 47.1296 124.693 47.9716 126.366C49.1568 128.708 50.983 130.666 53.2376 132.011C54.4603 132.839 55.8969 133.295 57.3734 133.323C58.778 133.178 60.1095 132.626 61.2038 131.733C63.2841 130.2 65.1234 127.975 65.1629 125.266C65.2083 124.075 64.8671 122.901 64.1901 121.92C63.5131 120.939 62.5368 120.203 61.4071 119.823L61.0198 122.685C61.5996 122.638 62.1585 122.447 62.645 122.128C63.1314 121.81 63.5299 121.373 63.8036 120.86C64.0773 120.347 64.2175 119.773 64.2113 119.192C64.205 118.61 64.0525 118.039 63.7679 117.532C62.4324 115.052 59.4974 115.092 57.1045 115.506C56.7335 115.612 56.419 115.859 56.2286 116.194C56.0383 116.53 55.9874 116.926 56.0871 117.299C56.1972 117.667 56.445 117.978 56.7789 118.167C57.1127 118.357 57.5068 118.41 57.879 118.316L57.8784 118.318Z" fill="#10403B"/>
<path d="M90.9571 115.216C88.555 114.6 85.5891 114.46 84.1467 116.929C83.8579 117.424 83.6965 117.982 83.677 118.554C83.6576 119.126 83.7806 119.695 84.0351 120.207C84.2896 120.72 84.6676 121.162 85.1351 121.492C85.6026 121.823 86.1449 122.032 86.7133 122.101L86.326 119.239C83.8639 119.76 82.3123 122.217 82.2528 124.632C82.1884 127.217 83.8535 129.578 85.7693 131.158C86.8067 132.125 88.1076 132.763 89.5075 132.99C90.9813 133.046 92.4411 132.686 93.7197 131.951C96.0642 130.77 98.025 128.947 99.3736 126.695C100.349 125.087 97.83 123.621 96.8581 125.225C95.9276 126.77 94.6292 128.062 93.0787 128.985C92.2774 129.503 91.3892 129.871 90.4569 130.072C90.0047 130.112 89.5492 130.056 89.1203 129.908C88.6913 129.76 88.2986 129.522 87.968 129.211C86.6793 128.222 85.3438 126.748 85.1757 125.057C85.0439 123.744 85.7608 122.333 87.1024 122.049C87.4407 121.954 87.7332 121.74 87.9252 121.446C88.1172 121.152 88.1956 120.798 88.1459 120.45C88.0932 120.105 87.9211 119.79 87.6596 119.559C87.3981 119.328 87.0638 119.196 86.7151 119.187C86.8365 119.203 86.5986 118.91 86.5767 118.743C86.5845 118.603 86.6252 118.468 86.6955 118.347C86.7658 118.227 86.8636 118.124 86.981 118.049C87.8915 117.354 89.1979 117.773 90.1843 118.025C92.0018 118.491 92.777 115.681 90.9589 115.216H90.9571Z" fill="#10403B"/>
<path d="M119.891 132.433C120.461 130.67 121.241 128.906 122.721 127.713C124.052 126.675 125.713 126.153 127.399 126.243C129.024 126.331 130.561 127.009 131.722 128.15C132.973 129.474 133.677 131.222 133.694 133.043C133.746 134.956 133.308 136.852 132.423 138.549C132.082 139.245 131.697 139.918 131.269 140.565C131.02 140.958 130.737 141.329 130.424 141.674C128.599 143.849 126.166 145.429 123.437 146.212C121.688 146.693 119.62 147.065 117.992 146.064C117.2 145.591 116.592 144.864 116.268 144C115.944 143.136 115.923 142.188 116.209 141.311C116.77 139.518 113.958 138.75 113.4 140.537C113.039 141.708 112.995 142.954 113.272 144.147C113.55 145.341 114.138 146.44 114.978 147.333C115.791 148.174 116.791 148.811 117.896 149.194C119.002 149.576 120.182 149.692 121.341 149.532C125.257 149.143 128.915 147.398 131.682 144.6C134.451 141.821 136.454 137.898 136.608 133.949C136.755 131.436 136.016 128.951 134.518 126.928C133.124 125.172 131.155 123.965 128.958 123.519C127.661 123.259 126.324 123.263 125.028 123.529C123.732 123.795 122.503 124.318 121.413 125.068C119.154 126.685 117.916 129.069 117.078 131.659C116.5 133.447 119.313 134.213 119.888 132.433H119.891Z" fill="#10403B"/>
<path d="M32.9009 131.659C32.1791 129.426 31.1575 127.195 29.3224 125.649C27.5037 124.121 25.1974 123.294 22.8216 123.32C20.538 123.368 18.343 124.213 16.6159 125.708C14.7916 127.365 13.6635 129.652 13.4593 132.108C12.9397 136.319 14.8118 140.646 17.5441 143.789C19.9627 146.593 23.2375 148.521 26.8621 149.276C29.584 149.806 32.1931 149.717 34.4124 147.88C35.456 147.004 36.2182 145.84 36.6038 144.534C36.9893 143.227 36.9811 141.836 36.5801 140.535C36.0223 138.751 33.2086 139.512 33.7701 141.309C34.0332 142.11 34.0401 142.973 33.7899 143.778C33.5396 144.583 33.0447 145.29 32.374 145.801C30.9887 146.882 29.2738 146.782 27.6391 146.464C24.7921 145.896 22.1899 144.463 20.1877 142.361C19.4597 141.643 18.8331 140.83 18.3253 139.943C17.2875 138.319 16.6077 136.493 16.3312 134.586C16.0597 132.624 16.4941 130.631 17.5568 128.96C18.5311 127.632 19.9608 126.711 21.5723 126.371C22.5072 126.179 23.4717 126.181 24.4058 126.377C25.3399 126.573 26.2237 126.959 27.0023 127.511C28.6455 128.677 29.4911 130.572 30.0933 132.428C30.6682 134.205 33.4824 133.445 32.9027 131.654L32.9009 131.659Z" fill="#10403B"/>
<path d="M40.1568 38.72C38.6452 35.0614 38.5044 30.7514 39.2037 26.8907C39.86 23.3474 41.19 19.9629 43.1215 16.9207C46.578 11.4635 52.0013 7.6033 58.0352 5.45075C64.9912 2.95377 72.4771 2.30965 79.7574 3.58168C83.9577 4.27958 88.0159 5.65849 91.7719 7.66401C95.1715 9.57659 98.2234 12.0501 100.799 14.98C105.795 20.6255 107.627 28.4277 106.919 35.8281C106.834 36.7131 106.719 37.5952 106.594 38.4754C106.504 38.8474 106.559 39.2398 106.748 39.5727C106.937 39.9056 107.246 40.154 107.611 40.2673C107.984 40.3671 108.381 40.3164 108.716 40.126C109.051 39.9356 109.299 39.621 109.404 39.2499C109.72 37.2764 109.913 35.2851 109.982 33.2876C109.998 31.0385 109.793 28.7933 109.371 26.5841C108.715 22.6059 107.19 18.8211 104.905 15.499C99.9074 8.44951 92.2138 3.64239 83.9186 1.50744C79.5862 0.340144 75.0988 -0.14785 70.6167 0.0608712C66.8619 0.261748 63.1414 0.881533 59.5243 1.90869C52.6872 3.90159 46.4165 7.66644 42.0592 13.3695C37.1082 19.8533 34.7657 28.5855 36.4696 36.6276C36.6739 37.608 36.9675 38.5677 37.3468 39.4946C37.46 39.8603 37.7084 40.1692 38.0413 40.3583C38.3742 40.5474 38.7666 40.6026 39.1388 40.5126C39.5101 40.4078 39.8253 40.1609 40.0158 39.8253C40.2064 39.4898 40.257 39.0926 40.1568 38.72Z" fill="#10403B"/>
<path d="M69.1537 25.5799C69.0323 26.0358 68.8914 26.4802 68.7385 26.9263C68.6984 27.0277 68.7148 26.9907 68.7876 26.8165C68.7676 26.8638 68.7464 26.9106 68.7269 26.9573C68.6911 27.035 68.6547 27.1127 68.6164 27.1892C68.5248 27.3713 68.4252 27.5534 68.3184 27.7282C68.2116 27.9031 68.0986 28.0755 67.9785 28.2418C67.9505 28.2806 67.7611 28.5052 67.9062 28.3407C68.0513 28.1762 67.8212 28.4385 67.7927 28.4719C67.5355 28.7713 67.2569 29.0516 66.9592 29.3108C66.8815 29.3782 66.8014 29.4431 66.7225 29.5093C66.5149 29.6835 66.8797 29.4006 66.7322 29.5014C66.5847 29.6022 66.4244 29.7199 66.2648 29.8213C66.0912 29.9318 65.9133 30.0362 65.7318 30.1327C65.5606 30.2485 65.3738 30.3395 65.177 30.4028C65.3281 30.378 65.3858 30.3179 65.1922 30.3925C65.0966 30.4298 65.0001 30.465 64.9026 30.4982C64.7247 30.5589 64.5444 30.6135 64.3623 30.6608C64.1632 30.7122 63.9625 30.7557 63.7602 30.7913L63.6588 30.8083C63.4969 30.8326 63.524 30.8294 63.7401 30.7986C63.6403 30.8264 63.5363 30.8362 63.433 30.8278C63.0466 30.8278 62.676 30.9813 62.4028 31.2545C62.1296 31.5277 61.9761 31.8983 61.9761 32.2847C61.9761 32.671 62.1296 33.0416 62.4028 33.3148C62.676 33.5881 63.0466 33.7415 63.433 33.7415C65.4672 33.5783 67.3967 32.7717 68.9418 31.4385C70.4499 30.0963 71.5058 28.3205 71.9649 26.3545C72.0157 26.1701 72.0298 25.9774 72.0061 25.7875C71.9825 25.5976 71.9218 25.4142 71.8273 25.2478C71.7328 25.0814 71.6065 24.9353 71.4555 24.8177C71.3046 24.7001 71.1319 24.6134 70.9475 24.5625C70.763 24.5117 70.5703 24.4977 70.3804 24.5213C70.1906 24.5449 70.0072 24.6056 69.8408 24.7001C69.6744 24.7946 69.5282 24.9209 69.4106 25.0719C69.2931 25.2228 69.2064 25.3955 69.1555 25.5799H69.1537Z" fill="#10403B"/>
<path d="M78.8602 26.817C78.8602 26.9815 78.8602 27.1454 78.8511 27.3093C78.8457 27.4076 78.836 27.5054 78.8281 27.6037C78.8056 27.8793 78.8694 27.3724 78.8372 27.5576C78.7812 27.8969 78.7043 28.2324 78.6071 28.5622C78.5592 28.7188 78.5051 28.8736 78.4469 29.0266C78.4262 29.0812 78.2915 29.3143 78.4086 29.1262C78.5258 28.938 78.3837 29.1723 78.3607 29.2215C78.2119 29.5326 78.0419 29.8332 77.852 30.1211C77.807 30.1897 77.7603 30.2577 77.7129 30.3244C77.6856 30.3639 77.5236 30.6031 77.6522 30.4149C77.7809 30.2267 77.614 30.4604 77.5824 30.4987C77.5296 30.5594 77.4762 30.6243 77.4216 30.6856C77.1928 30.9431 76.9464 31.1843 76.684 31.4074C76.6464 31.439 76.437 31.6338 76.6021 31.479C76.7672 31.3242 76.5565 31.5124 76.514 31.5397C76.3811 31.635 76.2445 31.7261 76.1049 31.8111C75.9511 31.9054 75.7939 31.9934 75.6332 32.0751C75.5604 32.1122 75.4863 32.1468 75.4123 32.1826C75.1488 32.3107 75.6927 32.0721 75.3977 32.1905C75.0304 32.3013 74.7198 32.5492 74.5304 32.8829C74.341 33.2165 74.2872 33.6102 74.3803 33.9824C74.4865 34.3528 74.7336 34.6668 75.0686 34.857C75.4036 35.0472 75.7999 35.0985 76.1723 34.9998C77.8591 34.3372 79.3039 33.1761 80.3141 31.6715C81.2793 30.2369 81.7886 28.5442 81.7752 26.8152C81.7752 26.4288 81.6217 26.0582 81.3485 25.785C81.0753 25.5118 80.7047 25.3583 80.3183 25.3583C79.932 25.3583 79.5614 25.5118 79.2882 25.785C79.015 26.0582 78.8615 26.4288 78.8615 26.8152L78.8602 26.817Z" fill="#10403B"/>
</g>
<defs>
<clipPath id="clip0_46_2341">
<rect width="150" height="150" fill="white"/>
</clipPath>
</defs>
</svg>
