<svg width="150" height="150" viewBox="0 0 150 150" fill="none" xmlns="http://www.w3.org/2000/svg">
<path d="M101.772 22.0796C103.013 20.7215 132.198 22.6884 130.957 24.0417L99.5995 58.3257C99.3048 58.6485 98.9493 58.91 98.5535 59.0954C98.1576 59.2807 97.729 59.3861 97.2924 59.4057C96.8557 59.4253 96.4195 59.3586 96.0086 59.2094C95.5977 59.0603 95.2203 58.8316 94.8978 58.5364L82.9376 47.597C81.5842 46.3607 81.4905 44.2534 82.7315 42.9L101.772 22.0796Z" fill="#BFBFBF"/>
<path d="M98.3301 62.5406C100.559 64.5777 100.714 68.0431 98.6766 70.2722L47.0797 126.688C45.0379 128.917 41.5772 129.071 39.3435 127.034L19.6656 109.033C17.4319 106.991 17.2773 103.531 19.3191 101.302L70.916 44.8859C72.9531 42.6521 76.4185 42.4976 78.6476 44.5393L98.3301 62.5406Z" fill="#127369"/>
<path d="M43.0371 131.744C40.8488 131.744 38.7522 130.932 37.1342 129.456L17.4531 111.452C16.6022 110.678 15.9131 109.744 15.4258 108.702C14.9385 107.661 14.6627 106.533 14.6143 105.384C14.5596 104.235 14.7336 103.087 15.1264 102.006C15.5191 100.925 16.1226 99.933 16.902 99.0873L68.497 42.6735C69.3172 41.7769 70.3149 41.0607 71.4269 40.5704C72.5388 40.0802 73.7405 39.8266 74.9557 39.8258C77.1478 39.8258 79.2453 40.6411 80.8619 42.1223L100.542 60.1218C101.393 60.8952 102.081 61.8296 102.568 62.8709C103.055 63.9122 103.33 65.0397 103.378 66.1881C103.433 67.3362 103.259 68.4838 102.867 69.5644C102.476 70.6451 101.874 71.6374 101.096 72.4839L49.4987 128.9C48.677 129.796 47.6784 130.511 46.5662 131C45.454 131.49 44.2523 131.743 43.0371 131.744ZM74.9557 46.3815C74.3319 46.3815 73.7569 46.6348 73.3382 47.0942L21.7381 103.514C21.5426 103.725 21.3912 103.974 21.2926 104.245C21.1939 104.515 21.15 104.803 21.1635 105.091C21.1758 105.379 21.2452 105.662 21.3677 105.924C21.4902 106.185 21.6634 106.419 21.8771 106.613L41.5554 124.615C41.9604 124.984 42.4887 125.189 43.0366 125.188C43.3425 125.19 43.6453 125.127 43.9254 125.004C44.2054 124.881 44.4564 124.7 44.6621 124.474L96.2571 68.0599C96.4518 67.8474 96.6025 67.5984 96.7005 67.3274C96.7985 67.0564 96.8418 66.7686 96.828 66.4808C96.8162 66.1929 96.7473 65.9103 96.6255 65.6493C96.5036 65.3883 96.3311 65.1541 96.118 64.9602L76.4346 46.9584C76.0317 46.5871 75.5037 46.3811 74.9557 46.3815Z" fill="#10403B"/>
<path d="M97.1424 62.6871C95.4926 62.6879 93.9024 62.0704 92.6856 60.9563L80.7244 50.016C80.0829 49.4326 79.5637 48.7277 79.1966 47.9421C78.8296 47.1566 78.6221 46.3061 78.5861 45.4398C78.5451 44.5724 78.6768 43.7055 78.9734 42.8894C79.27 42.0733 79.7258 41.3242 80.3141 40.6856L99.3523 19.868C100.458 18.6579 101.951 18.3446 106.609 18.3446C110.645 18.3446 116.685 18.6499 121.997 19.1224C124.681 19.3613 126.982 19.6263 128.652 19.8895C131.258 20.3002 133.167 20.7348 133.985 22.5935C134.249 23.1978 134.332 23.866 134.223 24.5166C134.115 25.1672 133.819 25.772 133.372 26.2574L102.017 60.5386C101.398 61.2149 100.645 61.7552 99.8056 62.125C98.9664 62.4949 98.0595 62.6863 97.1424 62.6871ZM103.544 24.9996L85.1502 45.1124C85.1507 45.1129 85.1488 45.1775 85.1498 45.1785L97.1424 56.1314C97.1495 56.132 97.1566 56.1307 97.163 56.1278C97.1695 56.1248 97.1751 56.1203 97.1794 56.1146L124.738 25.9839C119.721 25.4276 111.948 24.9003 106.609 24.9003C104.993 24.8998 104.057 24.9527 103.544 24.9996ZM62.6261 98.3418C61.9903 98.3416 61.3683 98.1564 60.8359 97.809C60.3034 97.4615 59.8835 96.9667 59.6273 96.3849C59.3711 95.803 59.2895 95.1592 59.3927 94.5318C59.4959 93.9045 59.7792 93.3207 60.2083 92.8515L84.8589 65.8959C85.1495 65.5782 85.4997 65.3209 85.8897 65.1386C86.2797 64.9562 86.7018 64.8526 87.1319 64.8334C87.562 64.8142 87.9916 64.8799 88.3963 65.0268C88.801 65.1737 89.1727 65.3988 89.4904 65.6894C89.8081 65.9799 90.0655 66.3301 90.2478 66.7201C90.4302 67.1101 90.5339 67.5321 90.5532 67.9622C90.5724 68.3923 90.5067 68.8219 90.3599 69.2266C90.213 69.6313 89.9879 70.0031 89.6974 70.3208L65.0463 97.276C64.7393 97.6124 64.3655 97.8809 63.9488 98.0645C63.532 98.248 63.0815 98.3425 62.6261 98.3418ZM52.9371 108.939C52.3013 108.939 51.6794 108.754 51.1469 108.407C50.6144 108.06 50.1944 107.565 49.9381 106.983C49.6817 106.402 49.6 105.758 49.7029 105.13C49.8059 104.503 50.089 103.919 50.5178 103.45L52.2037 101.605C52.7901 100.963 53.6075 100.581 54.4759 100.541C55.3444 100.502 56.1929 100.81 56.8347 101.396C57.4765 101.982 57.8592 102.8 57.8984 103.668C57.9377 104.537 57.6303 105.385 57.044 106.027L55.3581 107.872C55.0512 108.209 54.6773 108.478 54.2604 108.662C53.8435 108.845 53.3927 108.94 52.9371 108.939Z" fill="#10403B"/>
</svg>
