<svg width="120" height="120" viewBox="0 0 120 120" fill="none" xmlns="http://www.w3.org/2000/svg">
<path d="M93.8477 104.823C97.5328 104.823 100.52 101.836 100.52 98.1506C100.52 94.4655 97.5328 91.4779 93.8477 91.4779C90.1626 91.4779 87.175 94.4655 87.175 98.1506C87.175 101.836 90.1626 104.823 93.8477 104.823Z" stroke="#4285F4" stroke-width="6.67267" stroke-linecap="round" stroke-linejoin="round"/>
<path d="M49.3633 104.823C53.0484 104.823 56.036 101.836 56.036 98.1506C56.036 94.4655 53.0484 91.4779 49.3633 91.4779C45.6781 91.4779 42.6907 94.4655 42.6907 98.1506C42.6907 101.836 45.6781 104.823 49.3633 104.823Z" stroke="#4285F4" stroke-width="6.67267" stroke-linecap="round" stroke-linejoin="round"/>
<path d="M29.3453 24.7513H104.969L96.072 73.6842H38.2422L29.3453 24.7513ZM29.3453 24.7513C28.6039 21.7856 24.8969 15.8544 16 15.8544" stroke="#4285F4" stroke-width="6.67267" stroke-linecap="round" stroke-linejoin="round"/>
<path d="M96.0719 73.6842H38.2421H30.3718C22.4344 73.6842 18.2241 77.1593 18.2241 82.5811C18.2241 88.0029 22.4344 91.478 30.3718 91.478H93.8477" stroke="#4285F4" stroke-width="6.67267" stroke-linecap="round" stroke-linejoin="round"/>
</svg>
