<svg width="120" height="120" viewBox="0 0 120 120" fill="none" xmlns="http://www.w3.org/2000/svg">
<path d="M90.6889 59.5556V32.3269C90.6889 31.6338 90.4136 30.9691 89.9236 30.479L76.2097 16.7654C75.7197 16.2753 75.055 16 74.3621 16H23.6133C22.17 16 21 17.17 21 18.6133V100.498C21 101.941 22.17 103.111 23.6133 103.111H51.4889" stroke="#4285F4" stroke-width="6.53333" stroke-linecap="round" stroke-linejoin="round"/>
<path d="M38.4221 50.8443H73.2666M38.4221 33.4221H55.8443M38.4221 68.2666H51.4888" stroke="#4285F4" stroke-width="6.53333" stroke-linecap="round" stroke-linejoin="round"/>
<path d="M92.8667 96.5779L99.4 103.111" stroke="#4285F4" stroke-width="6.53333" stroke-linecap="round" stroke-linejoin="round"/>
<path d="M68.9111 85.6889C68.9111 92.9056 74.7611 98.7555 81.9778 98.7555C85.5925 98.7555 88.8639 97.2877 91.2294 94.9161C93.5871 92.5523 95.0445 89.2909 95.0445 85.6889C95.0445 78.4721 89.1945 72.6222 81.9778 72.6222C74.7611 72.6222 68.9111 78.4721 68.9111 85.6889Z" stroke="#4285F4" stroke-width="6.53333" stroke-linecap="round" stroke-linejoin="round"/>
<path d="M73.2666 16V30.8089C73.2666 32.2522 74.4365 33.4222 75.8799 33.4222H90.6888" stroke="#4285F4" stroke-width="6.53333" stroke-linecap="round" stroke-linejoin="round"/>
</svg>
