<svg width="150" height="150" viewBox="0 0 150 150" fill="none" xmlns="http://www.w3.org/2000/svg">
<path d="M110.566 71.7187V21.123C110.566 19.6875 109.424 18.5449 107.988 18.5449H91.2891V29.2383H97.2656C98.7012 29.2383 99.8437 30.3809 99.8437 31.8164V61.0254C99.8437 62.4609 98.7012 63.6035 97.2656 63.6035H91.2891V74.2969H107.988C109.395 74.2969 110.566 73.1543 110.566 71.7187Z" fill="#10403B"/>
<path d="M22.8806 79.8633H87.1872V78.4277V59.5313V33.3691V14.4434V11.6895C87.1872 10.1953 85.9861 8.99414 84.4919 8.99414H15.7321C13.5642 8.99414 12.2751 11.3965 13.5056 13.1836L22.9099 27.2461V79.8633H22.8806ZM36.2693 30.9375H52.8806C54.0232 30.9375 54.9314 31.8457 54.9314 32.9883C54.9314 34.1309 54.0232 35.0391 52.8806 35.0391H36.2693C35.1267 35.0391 34.2185 34.1309 34.2185 32.9883C34.2185 31.8457 35.1267 30.9375 36.2693 30.9375ZM36.2693 43.5938H52.8806C54.0232 43.5938 54.9314 44.502 54.9314 45.6445C54.9314 46.7871 54.0232 47.6953 52.8806 47.6953H36.2693C35.1267 47.6953 34.2185 46.7871 34.2185 45.6445C34.2185 44.502 35.1267 43.5938 36.2693 43.5938ZM36.2693 56.25H52.8806C54.0232 56.25 54.9314 57.1582 54.9314 58.3008C54.9314 59.4434 54.0232 60.3516 52.8806 60.3516H36.2693C35.1267 60.3516 34.2185 59.4434 34.2185 58.3008C34.2185 57.1582 35.1267 56.25 36.2693 56.25ZM36.2693 68.9063H52.8806C54.0232 68.9063 54.9314 69.8145 54.9314 70.957C54.9314 72.0996 54.0232 73.0078 52.8806 73.0078H36.2693C35.1267 73.0078 34.2185 72.0996 34.2185 70.957C34.2185 69.8145 35.1267 68.9063 36.2693 68.9063Z" fill="#127369"/>
<path d="M106.084 8.99414H94.0137V14.4434H106.084V8.99414Z" fill="#10403B"/>
<path d="M124.629 91.7285H94.3066V86.5137C94.3066 85.1074 93.1641 83.9648 91.7578 83.9648H18.3398C16.9336 83.9648 15.791 85.1074 15.791 86.5137V101.074C15.791 102.48 16.9336 103.623 18.3398 103.623H91.7285C93.1348 103.623 94.2773 102.48 94.2773 101.074V95.8594H124.6C129.141 95.8594 132.861 99.5508 132.861 104.121V119.561C132.861 124.102 129.17 127.822 124.6 127.822H55.0488C54.9023 127.822 54.7266 127.852 54.5801 127.881V122.871C54.5801 122.08 54.0527 121.406 53.291 121.23L43.3008 118.77C43.1836 118.74 43.0371 118.711 42.8906 118.711H31.7871C30.8496 118.711 30.0879 119.473 30.0879 120.41V121.729H22.1191C20.9766 121.729 20.0684 122.637 20.0684 123.779C20.0684 124.922 20.9766 125.83 22.1191 125.83H30.0879V133.887H22.1191C20.9766 133.887 20.0684 134.795 20.0684 135.938C20.0684 137.08 20.9766 137.988 22.1191 137.988H30.0879V139.307C30.0879 140.244 30.8496 141.006 31.7871 141.006H42.8906C43.0371 141.006 43.1543 140.977 43.3008 140.947L53.291 138.486C54.0527 138.311 54.5801 137.607 54.5801 136.846V131.836C54.7266 131.865 54.873 131.895 55.0488 131.895H124.629C131.455 131.895 136.992 126.357 136.992 119.531V104.092C136.963 97.2949 131.426 91.7285 124.629 91.7285Z" fill="#10403B"/>
</svg>
