<svg width="150" height="150" viewBox="0 0 150 150" fill="none" xmlns="http://www.w3.org/2000/svg">
<path d="M37.5 65.625C32.3223 65.625 28.125 69.8225 28.125 75C28.125 80.1775 32.3223 84.375 37.5 84.375C42.6777 84.375 46.875 80.1775 46.875 75C46.875 69.8225 42.6777 65.625 37.5 65.625Z" fill="#127369"/>
<path d="M65.625 75C65.625 69.8225 69.8225 65.625 75 65.625C80.1775 65.625 84.375 69.8225 84.375 75C84.375 80.1775 80.1775 84.375 75 84.375C69.8225 84.375 65.625 80.1775 65.625 75Z" fill="#127369"/>
<path d="M103.125 75C103.125 69.8225 107.322 65.625 112.5 65.625C117.677 65.625 121.875 69.8225 121.875 75C121.875 80.1775 117.677 84.375 112.5 84.375C107.322 84.375 103.125 80.1775 103.125 75Z" fill="#127369"/>
</svg>
