<svg width="150" height="150" viewBox="0 0 150 150" fill="none" xmlns="http://www.w3.org/2000/svg">
<path d="M75 0C33.5625 0 0 33.5625 0 75C0 116.438 33.5625 150 75 150C116.438 150 150 116.438 150 75C150 33.5625 116.438 0 75 0ZM75 18.75C81.1875 18.75 87 20.4375 92.625 22.3125C88.6875 26.0625 84.1875 29.4375 84.9375 32.8125C85.6875 36.1875 97.875 35.25 97.875 42.1875C97.875 47.25 90 48.75 95.4375 54.5625C102 61.125 83.4375 72.9375 83.0625 81.5625C82.5 97.125 98.8125 99.75 111.75 99.75C119.625 99.75 121.688 103.5 121.125 108C111 122.438 93.75 131.438 74.8125 131.438C67.6875 131.438 61.125 129.75 54.9375 127.312C59.0625 119.062 49.6875 102.75 40.875 97.5C36.5625 93.1875 27.375 94.875 22.125 92.8125C20.4375 87.75 18.75 82.6875 18.5625 77.0625C19.125 76.125 20.0625 75.375 21.5625 75.375C25.125 75.375 30 82.5 32.625 81.75C36 81 18.75 57.1875 26.8125 52.5C30.5625 50.25 38.0625 59.8125 35.625 49.5C33.375 39.9375 42.375 44.25 48 41.8125C52.875 39.75 56.4375 34.125 50.4375 30.75C49.3125 30.1875 48 28.875 46.3125 27.1875C54.75 22.125 64.5 18.9375 75 18.9375V18.75ZM118.312 39.1875C121.688 43.3125 124.312 47.8125 126.562 52.6875V53.25C125.812 54.5625 124.5 55.3125 122.438 57.375C117.188 62.625 116.438 53.4375 114.188 51.5625C111.75 49.3125 102.938 51.9375 101.812 49.125C100.5 45.75 111.188 41.25 118.312 39.1875Z" fill="#333333"/>
</svg>
