<svg width="128" height="128" viewBox="0 0 128 128" fill="none" xmlns="http://www.w3.org/2000/svg">
<path d="M5.87695 5L123 122.123" stroke="#599D96" stroke-width="9.76026" stroke-linecap="round" stroke-linejoin="round"/>
<path d="M54.6782 54.953C52.6533 57.2467 51.4248 60.2606 51.4248 63.5609C51.4248 70.7477 57.251 76.5746 64.4385 76.5746C67.7388 76.5746 70.7521 75.3461 73.0464 73.3212" stroke="#599D96" stroke-width="9.76026" stroke-linecap="round" stroke-linejoin="round"/>
<path d="M34.2586 34.6779C23.3152 42.3467 14.1986 53.2725 5.87671 63.5611C18.1653 83.023 40.2439 102.602 64.4383 102.602C74.5232 102.602 84.2412 99.2003 93.0352 93.8231" stroke="#599D96" stroke-width="9.76026" stroke-linecap="round" stroke-linejoin="round"/>
<path d="M64.4385 24.5205C90.5205 24.5205 108.044 45.0704 123 63.5616C120.928 66.843 118.577 70.1283 115.986 73.3218" stroke="#599D96" stroke-width="9.76026" stroke-linecap="round" stroke-linejoin="round"/>
</svg>
