<svg width="24" height="24" viewBox="0 0 24 24" fill="none" xmlns="http://www.w3.org/2000/svg">
<path d="M12.1601 7.09333C13.6623 7.09333 14.6756 7.74222 15.2534 8.28444L17.5112 6.08C16.1245 4.79111 14.3201 4 12.1601 4C9.03118 4 6.32896 5.79556 5.0134 8.40889L7.60007 10.4178C8.24896 8.48889 10.0445 7.09333 12.1601 7.09333Z" fill="#EA4335"/>
<path d="M19.84 12.1778C19.84 11.52 19.7866 11.04 19.6711 10.5422H12.16V13.5111H16.5689C16.48 14.2489 16 15.36 14.9333 16.1067L17.4577 18.0622C18.9689 16.6667 19.84 14.6133 19.84 12.1778Z" fill="#4285F4"/>
<path d="M7.60893 13.5823C7.44004 13.0845 7.34226 12.5512 7.34226 12C7.34226 11.4489 7.44004 10.9156 7.60004 10.4178L5.01337 8.40894C4.47115 9.49338 4.16004 10.7112 4.16004 12C4.16004 13.2889 4.47115 14.5067 5.01337 15.5912L7.60893 13.5823Z" fill="#FBBC05"/>
<path d="M12.1602 20.0001C14.3202 20.0001 16.1335 19.2889 17.458 18.0623L14.9335 16.1067C14.258 16.5778 13.3513 16.9067 12.1602 16.9067C10.0446 16.9067 8.24909 15.5112 7.60909 13.5823L5.02242 15.5912C6.33797 18.2045 9.03131 20.0001 12.1602 20.0001Z" fill="#34A853"/>
</svg>
