<svg width="150" height="150" viewBox="0 0 150 150" fill="none" xmlns="http://www.w3.org/2000/svg">
<path d="M75.0002 9.375L21.8752 56.5969V137.5C21.8752 139.158 22.5337 140.747 23.7058 141.919C24.8779 143.092 26.4676 143.75 28.1252 143.75H121.875C123.533 143.75 125.123 143.092 126.295 141.919C127.467 140.747 128.125 139.158 128.125 137.5V56.5937L75.0002 9.375Z" fill="#BFBFBF"/>
<path d="M143.75 74.9998C142.973 75.0004 142.223 74.7107 141.647 74.1873L75.0003 13.5935L8.35346 74.1873C8.04978 74.4635 7.69467 74.6771 7.30842 74.8161C6.92216 74.955 6.51232 75.0166 6.10229 74.9971C5.69226 74.9777 5.29007 74.8777 4.9187 74.7028C4.54732 74.5279 4.21402 74.2816 3.93784 73.9779C3.66165 73.6742 3.44798 73.3191 3.30904 72.9329C3.17009 72.5466 3.10858 72.1368 3.12802 71.7267C3.14746 71.3167 3.24748 70.9145 3.42235 70.5432C3.59722 70.1718 3.84353 69.8385 4.14721 69.5623L72.8972 7.06229C73.4735 6.54075 74.2231 6.25195 75.0003 6.25195C75.7776 6.25195 76.5271 6.54075 77.1035 7.06229L145.853 69.5623C146.32 69.9866 146.648 70.5423 146.793 71.1563C146.938 71.7702 146.894 72.4137 146.666 73.0021C146.439 73.5905 146.038 74.0962 145.518 74.4528C144.997 74.8093 144.381 75 143.75 74.9998Z" fill="#10403B"/>
<path d="M87.5002 103.125H62.5002C62.0899 103.125 61.6835 103.206 61.3044 103.363C60.9252 103.52 60.5807 103.75 60.2905 104.04C60.0004 104.33 59.7702 104.675 59.6131 105.054C59.4561 105.433 59.3752 105.84 59.3752 106.25V143.75H90.6252V106.25C90.6252 105.84 90.5444 105.433 90.3874 105.054C90.2303 104.675 90.0001 104.33 89.71 104.04C89.4198 103.75 89.0753 103.52 88.6961 103.363C88.317 103.206 87.9106 103.125 87.5002 103.125Z" fill="#127369"/>
<path d="M87.5002 84.3749H62.5002C62.0899 84.3749 61.6835 84.294 61.3044 84.137C60.9252 83.98 60.5807 83.7498 60.2905 83.4596C60.0004 83.1694 59.7702 82.8249 59.6131 82.4458C59.4561 82.0666 59.3752 81.6603 59.3752 81.2499V62.4999C59.3752 62.0895 59.4561 61.6831 59.6131 61.304C59.7702 60.9248 60.0004 60.5804 60.2905 60.2902C60.5807 60 60.9252 59.7698 61.3044 59.6128C61.6835 59.4557 62.0899 59.3749 62.5002 59.3749H87.5002C87.9106 59.3749 88.317 59.4557 88.6961 59.6128C89.0753 59.7698 89.4198 60 89.71 60.2902C90.0001 60.5804 90.2303 60.9248 90.3874 61.304C90.5444 61.6831 90.6252 62.0895 90.6252 62.4999V81.2499C90.6252 81.6603 90.5444 82.0666 90.3874 82.4458C90.2303 82.8249 90.0001 83.1694 89.71 83.4596C89.4198 83.7498 89.0753 83.98 88.6961 84.137C88.317 84.294 87.9106 84.3749 87.5002 84.3749Z" fill="#127369"/>
</svg>
