<svg width="26" height="26" viewBox="0 0 26 26" fill="none" xmlns="http://www.w3.org/2000/svg">
<path d="M6.9999 13.5999C7.33127 13.5999 7.5999 13.3312 7.5999 12.9999C7.5999 12.6686 7.33127 12.3999 6.9999 12.3999C6.66853 12.3999 6.3999 12.6686 6.3999 12.9999C6.3999 13.3312 6.66853 13.5999 6.9999 13.5999Z" fill="black" fill-opacity="0.6" stroke="black" stroke-opacity="0.6" stroke-width="1.8" stroke-linecap="round" stroke-linejoin="round"/>
<path d="M12.9999 13.5999C13.3312 13.5999 13.5999 13.3312 13.5999 12.9999C13.5999 12.6686 13.3312 12.3999 12.9999 12.3999C12.6686 12.3999 12.3999 12.6686 12.3999 12.9999C12.3999 13.3312 12.6686 13.5999 12.9999 13.5999Z" fill="black" fill-opacity="0.6" stroke="black" stroke-opacity="0.6" stroke-width="1.8" stroke-linecap="round" stroke-linejoin="round"/>
<path d="M18.9999 13.5999C19.3312 13.5999 19.5999 13.3312 19.5999 12.9999C19.5999 12.6686 19.3312 12.3999 18.9999 12.3999C18.6686 12.3999 18.3999 12.6686 18.3999 12.9999C18.3999 13.3312 18.6686 13.5999 18.9999 13.5999Z" fill="black" fill-opacity="0.6" stroke="black" stroke-opacity="0.6" stroke-width="1.8" stroke-linecap="round" stroke-linejoin="round"/>
<path d="M13 25C19.6274 25 25 19.6274 25 13C25 6.37258 19.6274 1 13 1C6.37258 1 1 6.37258 1 13C1 19.6274 6.37258 25 13 25Z" stroke="black" stroke-opacity="0.6" stroke-width="1.8" stroke-linecap="round" stroke-linejoin="round"/>
</svg>
