<svg width="55" height="55" viewBox="0 0 55 55" fill="none" xmlns="http://www.w3.org/2000/svg">
<mask id="mask0_138_3063" style="mask-type:luminance" maskUnits="userSpaceOnUse" x="0" y="0" width="55" height="55">
<path d="M55 0H0V55H55V0Z" fill="white"/>
</mask>
<g mask="url(#mask0_138_3063)">
<path d="M42.6737 27.778L47.535 22.9167M47.535 22.9167L52.3966 18.0553M47.535 22.9167L42.6737 18.0553M47.535 22.9167L52.3966 27.778" stroke="white" stroke-width="4.12" stroke-linecap="round" stroke-linejoin="round"/>
<path d="M2.29163 45.8333V43.5417C2.29163 34.6821 9.47373 27.5 18.3333 27.5C27.1929 27.5 34.375 34.6821 34.375 43.5417V45.8333" stroke="white" stroke-width="4.12" stroke-linecap="round" stroke-linejoin="round"/>
<path d="M18.3333 27.5C23.3958 27.5 27.5 23.3959 27.5 18.3333C27.5 13.2707 23.3958 9.16666 18.3333 9.16666C13.2707 9.16666 9.16663 13.2707 9.16663 18.3333C9.16663 23.3959 13.2707 27.5 18.3333 27.5Z" stroke="white" stroke-width="4.12" stroke-linecap="round" stroke-linejoin="round"/>
</g>
</svg>
