<svg width="16" height="14" viewBox="0 0 16 14" fill="none" xmlns="http://www.w3.org/2000/svg">
<path d="M1.33008 11.6667V5C1.33008 4.26362 1.92703 3.66667 2.66342 3.66667H2.99675C3.41642 3.66667 3.81161 3.46907 4.06342 3.13333L5.54342 1.16C5.61896 1.05928 5.73753 1 5.86343 1H10.1301C10.256 1 10.3746 1.05928 10.4501 1.16L11.9301 3.13333C12.1819 3.46907 12.5771 3.66667 12.9968 3.66667H13.3301C14.0665 3.66667 14.6635 4.26362 14.6635 5V11.6667C14.6635 12.4031 14.0665 13 13.3301 13H2.66342C1.92703 13 1.33008 12.4031 1.33008 11.6667Z" stroke="white" stroke-linecap="round" stroke-linejoin="round"/>
<path d="M7.99675 10.3333C9.46949 10.3333 10.6634 9.1394 10.6634 7.66667C10.6634 6.19393 9.46949 5 7.99675 5C6.52399 5 5.33008 6.19393 5.33008 7.66667C5.33008 9.1394 6.52399 10.3333 7.99675 10.3333Z" stroke="white" stroke-linecap="round" stroke-linejoin="round"/>
</svg>
