<svg width="120" height="120" viewBox="0 0 120 120" fill="none" xmlns="http://www.w3.org/2000/svg">
<path d="M60 20C37.9086 20 20 37.9086 20 60C20 82.0912 37.9086 100 60 100C82.0912 100 100 82.0912 100 60C100 37.9086 82.0912 20 60 20Z" stroke="#4285F4" stroke-width="6" stroke-linecap="round" stroke-linejoin="round"/>
<path d="M29.084 85.3829C29.084 85.3829 38.0001 74.0001 60 74.0001C82 74.0001 90.9164 85.3829 90.9164 85.3829" stroke="#4285F4" stroke-width="6" stroke-linecap="round" stroke-linejoin="round"/>
<path d="M60 60.0001C66.6276 60.0001 72 54.6277 72 48.0001C72 41.3727 66.6276 36.0001 60 36.0001C53.3724 36.0001 48 41.3727 48 48.0001C48 54.6277 53.3724 60.0001 60 60.0001Z" stroke="#4285F4" stroke-width="6" stroke-linecap="round" stroke-linejoin="round"/>
</svg>
