<svg width="21" height="23" viewBox="0 0 21 23" fill="none" xmlns="http://www.w3.org/2000/svg">
<path d="M15.8029 8.40112C15.8029 6.70343 15.1707 5.07529 14.0452 3.87485C12.9198 2.6744 11.3934 2 9.80186 2C8.21028 2 6.6839 2.6744 5.55848 3.87485C4.43307 5.07529 3.80082 6.70343 3.80082 8.40112C3.80082 15.8691 0.800293 18.0028 0.800293 18.0028H18.8034C18.8034 18.0028 15.8029 15.8691 15.8029 8.40112Z" fill="white" stroke="white" stroke-width="1.50026" stroke-linecap="round" stroke-linejoin="round"/>
<path d="M11.5321 21.0033C11.3563 21.3064 11.104 21.5581 10.8002 21.7329C10.4966 21.9079 10.1523 22 9.80183 22C9.45137 22 9.10711 21.9079 8.80346 21.7329C8.49981 21.5581 8.24736 21.3064 8.07153 21.0033" fill="white"/>
<path d="M11.5321 21.0033C11.3563 21.3064 11.104 21.5581 10.8002 21.7329C10.4966 21.9079 10.1523 22 9.80183 22C9.45137 22 9.10711 21.9079 8.80346 21.7329C8.49981 21.5581 8.24736 21.3064 8.07153 21.0033" stroke="white" stroke-width="1.50026" stroke-linecap="round" stroke-linejoin="round"/>
<path d="M17.013 7.60072C18.6702 7.60072 20.0135 6.25734 20.0135 4.6002C20.0135 2.94306 18.6702 1.59967 17.013 1.59967C15.3558 1.59967 14.0125 2.94306 14.0125 4.6002C14.0125 6.25734 15.3558 7.60072 17.013 7.60072Z" fill="#FF0000" stroke="#FF0000" stroke-width="1.50026" stroke-linecap="round" stroke-linejoin="round"/>
</svg>
