<svg width="20" height="22" viewBox="0 0 20 22" fill="none" xmlns="http://www.w3.org/2000/svg">
<path d="M16.0026 7.40112C16.0026 5.70343 15.3704 4.07529 14.2449 2.87485C13.1195 1.6744 11.5931 1 10.0016 1C8.40999 1 6.8836 1.6744 5.75819 2.87485C4.63277 4.07529 4.00052 5.70343 4.00052 7.40112C4.00052 14.8691 1 17.0028 1 17.0028H19.0031C19.0031 17.0028 16.0026 14.8691 16.0026 7.40112Z" fill="white" stroke="white" stroke-width="1.50026" stroke-linecap="round" stroke-linejoin="round"/>
<path d="M11.7318 20.0033C11.556 20.3064 11.3037 20.5581 10.9999 20.7329C10.6963 20.9079 10.352 21 10.0015 21C9.65108 21 9.30682 20.9079 9.00317 20.7329C8.69951 20.5581 8.44707 20.3064 8.27124 20.0033" fill="white"/>
<path d="M11.7318 20.0033C11.556 20.3064 11.3037 20.5581 10.9999 20.7329C10.6963 20.9079 10.352 21 10.0015 21C9.65108 21 9.30682 20.9079 9.00317 20.7329C8.69951 20.5581 8.44707 20.3064 8.27124 20.0033" stroke="white" stroke-width="1.50026" stroke-linecap="round" stroke-linejoin="round"/>
</svg>
