<svg width="150" height="150" viewBox="0 0 150 150" fill="none" xmlns="http://www.w3.org/2000/svg">
<g clip-path="url(#clip0_46_2597)">
<path d="M62.0035 71.0977C60.1519 72.0853 25.8877 78.6276 14.3547 70.0398C12.3974 68.5937 10.7398 67.2534 9.31128 66.0367C4.02085 61.5399 2.11626 58.6829 1.49927 57.5722C1.56987 57.5016 1.65806 57.4486 1.74624 57.3956C1.92261 57.2725 2.11655 57.1665 2.32808 57.0783C2.34565 57.0783 2.34565 57.0783 2.34565 57.0783C3.50962 57.1841 5.50239 57.4486 8.077 57.7304C8.077 57.7304 8.09458 57.7304 8.11245 57.7304C8.13003 57.7304 8.16519 57.7486 8.20063 57.7486C14.8311 58.4714 25.2532 59.3532 35.3931 58.4362C42.306 57.8011 48.1783 56.8841 52.6751 56.0025C59.0234 54.7858 62.6386 53.6752 62.6386 53.6752C62.6386 53.6752 63.8375 70.1101 62.0035 71.0977Z" fill="#127369"/>
<path d="M150 93.2821C150 93.2821 143.563 93.1236 121.379 86.0346C120.568 85.7704 119.757 85.5055 118.945 85.2234C115.947 84.2182 113.038 83.1248 110.234 81.996C108.03 81.0966 105.896 80.162 103.815 79.2278C100.923 77.8871 98.1542 76.5119 95.509 75.101C92.952 73.7431 90.5007 72.35 88.173 70.9567C87.3442 70.4452 86.5154 69.9515 85.7218 69.44C85.7218 69.44 85.7218 69.44 85.7042 69.44C85.7042 69.44 85.7042 69.44 85.6866 69.4227C85.4751 69.2991 85.2633 69.1757 85.0693 69.0342C84.5227 68.6994 83.976 68.3466 83.4469 67.9942H83.4293C83.2178 67.853 83.0238 67.7299 82.812 67.5887C81.9656 67.042 81.1368 66.4775 80.3432 65.9311C80.061 65.7369 79.7789 65.5608 79.4968 65.3665C77.8392 64.2202 76.2697 63.0741 74.7706 61.9631H74.753C74.4003 61.6983 74.0651 61.434 73.7303 61.1868C73.413 60.9401 73.0954 60.711 72.7781 60.464C71.7378 59.6706 70.7502 58.877 69.7802 58.1009C69.5687 57.9248 69.3393 57.7482 69.1277 57.5718C68.5459 57.0957 67.9814 56.6375 67.4525 56.179C64.6488 53.816 62.2327 51.6292 60.2578 49.7246C63.2555 47.097 65.6189 44.6109 67.0825 42.9708C68.0525 41.8772 69.6747 41.6835 70.8917 42.5123C73.1842 44.0639 75.4239 45.7039 77.6634 47.3443C79.6737 48.8252 81.6662 50.3419 83.659 51.8408C85.8105 53.4635 87.9618 55.0857 90.1485 56.6551C90.8364 57.1845 91.5416 57.6782 92.2295 58.1718C93.3229 58.9482 94.4162 59.7061 95.5096 60.4291C95.7741 60.6058 96.0563 60.7994 96.3208 60.9582C97.8551 61.9989 99.3894 62.9683 100.959 63.9032C101.576 64.2735 102.193 64.6441 102.81 64.9789C103.234 65.2256 103.657 65.455 104.08 65.6665C104.891 66.1426 105.72 66.566 106.567 66.9893C107.819 67.6242 109.106 68.2236 110.411 68.7881C110.481 68.8057 110.534 68.8233 110.587 68.8587C110.764 68.9293 110.958 68.9996 111.134 69.0702H111.151C111.575 69.2469 111.98 69.4233 112.421 69.5818C113.038 69.8287 113.656 70.0578 114.29 70.2875C114.326 70.3051 114.379 70.3051 114.414 70.3224C115.013 70.5342 115.613 70.7285 116.23 70.9221C116.988 71.1515 117.764 71.3806 118.54 71.5748C118.805 71.6452 119.087 71.7155 119.369 71.7864C119.739 71.8921 120.11 71.963 120.48 72.0512C120.568 72.0688 120.639 72.0861 120.727 72.1042C121.415 72.2627 122.102 72.3864 122.79 72.5097C123.513 72.6327 124.236 72.7564 124.977 72.8446C125.7 72.9506 126.458 73.0382 127.199 73.0912C127.586 73.1264 127.992 73.1619 128.38 73.1794C128.75 73.2146 129.103 73.2325 129.473 73.25C130.25 73.2852 131.025 73.3031 131.801 73.3031C133.917 73.3031 135.804 73.6203 137.479 74.2025C142.928 76.0537 146.156 80.4623 147.954 84.6773C149.488 88.2744 150 91.6954 150 93.2821Z" fill="#127369"/>
<path d="M150 93.282C150 97.2675 133.811 100.371 133.811 100.371L52.3397 98.0788L9.31143 96.8621L0.564551 96.6327L0 93.282V60.6051C0 60.4463 0.0175781 60.2878 0.0354492 60.1466C0.0708984 59.8293 0.141211 59.5293 0.246973 59.2472C0.3 59.1417 0.335156 59.0357 0.388184 58.9299C0.511523 58.6475 0.687891 58.3833 0.881836 58.1542C0.97002 58.0484 1.07578 57.9423 1.18184 57.8542C1.2876 57.7487 1.39336 57.6426 1.49912 57.572C1.56973 57.5014 1.65791 57.4484 1.74609 57.3954C1.92246 57.2723 2.11641 57.1663 2.32793 57.0781C2.34551 57.0781 2.34551 57.0781 2.34551 57.0781C2.45127 57.025 2.5749 56.9899 2.68066 56.9544C2.804 56.919 2.92764 56.8838 3.05098 56.8487C3.61523 56.7432 4.19707 56.7432 4.7792 56.902C5.29043 57.025 5.81953 57.1663 6.40166 57.3075C6.68379 57.3781 6.96592 57.4484 7.26592 57.519C7.54805 57.5896 7.83018 57.6602 8.1123 57.7305C8.12988 57.7305 8.16504 57.7487 8.20049 57.7487C8.55322 57.8366 8.92354 57.9248 9.31143 58.0129C16.4007 59.6351 26.5582 62.0867 35.9396 61.3279C43.9104 60.6757 48.76 58.6654 52.6749 56.0023C55.4259 54.151 57.7008 51.9819 60.2578 49.7249C62.233 51.6292 64.6488 53.8162 67.4525 56.179C68.1932 56.8141 68.9868 57.4487 69.7805 58.1014C70.7505 58.8772 71.7381 59.6708 72.7784 60.4645C73.4309 60.9579 74.0833 61.4518 74.7536 61.9633C76.2527 63.0746 77.8398 64.2207 79.4974 65.3667C79.7795 65.561 80.0616 65.7371 80.3438 65.9313C81.1371 66.478 81.9662 67.0425 82.8126 67.5889C84.5232 68.7177 86.3218 69.8462 88.1736 70.9569C90.5013 72.35 92.9525 73.7433 95.5096 75.1012C98.1548 76.5122 100.923 77.8876 103.816 79.228C105.896 80.1625 108.03 81.0968 110.234 81.9968C113.038 83.1253 115.948 84.2184 118.946 85.2236C119.757 85.5057 120.568 85.7703 121.38 86.0351C143.563 93.1232 150 93.282 150 93.282Z" fill="#10403B"/>
<path opacity="0.1" d="M9.31113 58.0132V96.8623L0.564258 96.6329L0 93.2823V60.6054C0 60.4466 0.0175781 60.2881 0.0354492 60.1469C0.0708984 59.8296 0.141211 59.5296 0.246973 59.2475C0.3 59.142 0.335156 59.036 0.388184 58.9302C0.511523 58.6478 0.687891 58.3835 0.881836 58.1544C0.97002 58.0487 1.07578 57.9426 1.18184 57.8544C1.2876 57.749 1.39336 57.6429 1.49912 57.5723C1.56973 57.5017 1.65791 57.4487 1.74609 57.3956C1.92246 57.2726 2.11641 57.1665 2.32793 57.0784C2.34551 57.0784 2.34551 57.0784 2.34551 57.0784C2.45127 57.0253 2.5749 56.9902 2.68066 56.9547C2.804 56.9193 2.92764 56.8841 3.05098 56.849C3.61523 56.7435 4.19707 56.7435 4.7792 56.9023C5.29043 57.0253 5.81953 57.1665 6.40166 57.3078C6.68379 57.3784 6.96592 57.4487 7.26592 57.5193C7.53047 57.5899 7.79502 57.6605 8.07715 57.7308C8.07715 57.7308 8.09473 57.7308 8.1126 57.7308C8.13018 57.7308 8.16533 57.749 8.20078 57.749C8.55293 57.8366 8.92324 57.925 9.31113 58.0132Z" fill="#040000"/>
<path d="M150 93.282V108.818H2.62764L2.2043 106.296L1.72822 103.493L1.30518 101.041L0.564258 96.6324L0 93.282H150Z" fill="#BFBFBF"/>
<path d="M150 101.041V103.493H1.72822L1.30518 101.041H150Z" fill="#5A6575"/>
<path d="M71.0796 63.7634C73.6533 63.7634 75.7396 61.6771 75.7396 59.1034C75.7396 56.5298 73.6533 54.4435 71.0796 54.4435C68.506 54.4435 66.4197 56.5298 66.4197 59.1034C66.4197 61.6771 68.506 63.7634 71.0796 63.7634Z" fill="#127369"/>
<path d="M84.3199 73.0101C86.8937 73.0101 88.9802 70.9236 88.9802 68.3498C88.9802 65.776 86.8937 63.6896 84.3199 63.6896C81.7461 63.6896 79.6597 65.776 79.6597 68.3498C79.6597 70.9236 81.7461 73.0101 84.3199 73.0101Z" fill="#127369"/>
<path d="M99.8539 81.4428C102.428 81.4428 104.514 79.3564 104.514 76.7826C104.514 74.2088 102.428 72.1223 99.8539 72.1223C97.2801 72.1223 95.1936 74.2088 95.1936 76.7826C95.1936 79.3564 97.2801 81.4428 99.8539 81.4428Z" fill="#127369"/>
<path d="M114.574 88.3217C117.148 88.3217 119.234 86.2353 119.234 83.6615C119.234 81.0877 117.148 79.0012 114.574 79.0012C112 79.0012 109.914 81.0877 109.914 83.6615C109.914 86.2353 112 88.3217 114.574 88.3217Z" fill="#127369"/>
<path opacity="0.06" d="M150 93.2821V108.818H41.6001L49.377 101.042L52.3395 98.0792L57.1362 93.2821L80.0965 70.3046L82.8123 67.5888L83.0593 67.3594L86.2863 64.1326L92.2292 58.1719C93.3226 58.9482 94.4159 59.7062 95.5093 60.4292C95.7738 60.6059 96.056 60.7995 96.3205 60.9583C97.8548 61.9989 99.3891 62.9684 100.959 63.9032C101.576 64.2735 102.193 64.6441 102.81 64.979C103.233 65.2257 103.656 65.4551 104.08 65.6666C104.891 66.1427 105.72 66.566 106.566 66.9894C107.818 67.6242 109.106 68.2236 110.411 68.7882C110.481 68.8058 110.534 68.8233 110.587 68.8588C110.763 68.9294 110.94 69.0176 111.134 69.0882C111.557 69.2643 111.98 69.4403 112.421 69.5815C113.038 69.8464 113.673 70.0576 114.29 70.2873C114.325 70.3049 114.378 70.3049 114.413 70.3222C115.013 70.534 115.613 70.7282 116.23 70.9219C116.988 71.1513 117.764 71.3804 118.54 71.5746C118.804 71.6449 119.087 71.7152 119.369 71.7861C119.739 71.8919 120.109 71.9628 120.48 72.051C120.568 72.0686 120.638 72.0858 120.727 72.104C121.414 72.2625 122.102 72.3861 122.79 72.5095C123.513 72.6325 124.236 72.7562 124.976 72.8443C125.699 72.9504 126.458 73.038 127.198 73.091C127.586 73.1262 127.992 73.1616 128.38 73.1792C128.75 73.2144 129.103 73.2322 129.473 73.2498C130.249 73.285 131.025 73.3028 131.801 73.3028C133.917 73.3028 135.804 73.6201 137.479 74.2022C142.928 76.0535 146.155 80.4621 147.954 84.677C149.488 88.2744 150 91.6954 150 93.2821Z" fill="#040000"/>
<path d="M84.3196 50.9591L76.3134 59.1593V59.1769L76.1722 59.3181C75.6785 59.8296 75.0437 60.1645 74.3909 60.3054C74.1088 60.3936 73.8091 60.4291 73.5091 60.4291C72.5745 60.4291 71.6399 60.0766 70.9169 59.3709C70.1587 58.6481 69.7881 57.6602 69.7881 56.6905C69.7881 55.7562 70.1408 54.8392 70.846 54.1334L71.3751 53.5871L78.3231 46.4626C80.3341 47.9436 82.3269 49.4603 84.3196 50.9591Z" fill="#10403B"/>
<path d="M96.9811 60.0766L89.751 67.5007L89.6452 67.6068C88.9397 68.2768 88.0052 68.6292 87.0882 68.6292C86.8588 68.6292 86.6297 68.612 86.3827 68.5586C86.3827 68.5586 86.3827 68.5586 86.3651 68.5586C86.3651 68.5586 86.3651 68.5586 86.3475 68.5414C85.6775 68.4177 85.0251 68.0829 84.496 67.5713C84.3548 67.4301 84.2138 67.2713 84.1081 67.1128H84.0905C83.9496 66.9186 83.826 66.6895 83.7202 66.4777C83.1911 65.3492 83.2617 63.9913 83.9496 62.9331C84.0729 62.704 84.2317 62.51 84.4257 62.3161L90.8094 55.7732C91.4973 56.3029 92.2025 56.7962 92.8904 57.2899C93.9838 58.0663 95.0771 58.8242 96.1705 59.5472C96.4345 59.7242 96.7166 59.9178 96.9811 60.0766Z" fill="#10403B"/>
<path d="M111.795 68.188V68.2062L105.111 75.0658L104.741 75.4361C104.018 76.1767 103.048 76.5646 102.078 76.5646C101.144 76.5646 100.209 76.2122 99.4861 75.5067C98.4455 74.4836 98.1282 72.9851 98.5691 71.6796C98.7104 71.1508 99.0101 70.6748 99.4155 70.2517L104.741 64.7849C105.552 65.261 106.381 65.6843 107.228 66.1074C108.48 66.7425 109.767 67.3417 111.072 67.9062C111.142 67.9238 111.195 67.9414 111.248 67.9768C111.425 68.0474 111.619 68.1174 111.795 68.188Z" fill="#10403B"/>
<path d="M129.041 72.297L120.382 81.1672C120.188 81.3615 119.977 81.5375 119.765 81.6787C119.148 82.0842 118.425 82.2957 117.719 82.2957C116.785 82.2957 115.85 81.943 115.127 81.2378C114.316 80.4445 113.946 79.3508 114.051 78.2753C114.087 77.4462 114.439 76.635 115.074 75.9828L120.029 70.9039C120.4 71.01 120.77 71.0806 121.14 71.1688C121.229 71.1864 121.299 71.2036 121.387 71.2218C122.075 71.3803 122.763 71.5039 123.45 71.6273C124.173 71.7503 124.896 71.874 125.637 71.9621C126.36 72.0679 127.118 72.1558 127.859 72.2088C128.247 72.2443 128.653 72.2794 129.041 72.297Z" fill="#10403B"/>
</g>
<defs>
<clipPath id="clip0_46_2597">
<rect width="150" height="150" fill="white"/>
</clipPath>
</defs>
</svg>
